<?xml version="1.0" encoding="UTF-8"?>
<svg version="1.1" xmlns="http://www.w3.org/2000/svg" width="2000" height="2664">
<path d="M0 0 C1.20062576 0.00140488 1.20062576 0.00140488 2.42550659 0.00283813 C40.93294748 0.09946731 78.76187663 5.32019012 116.1875 14.1875 C117.30705078 14.45256348 118.42660156 14.71762695 119.58007812 14.99072266 C149.8048854 22.30835587 179.0003692 33.13615505 207.1875 46.1875 C208.57098633 46.82437744 208.57098633 46.82437744 209.98242188 47.47412109 C234.73505353 58.99738545 258.30589896 73.69610286 279.78125 90.53125 C282.26129886 92.47523129 284.76426127 94.38533641 287.28125 96.28125 C299.88942726 105.79092843 311.81903524 115.88406893 323.3984375 126.6171875 C325.92514447 128.94572138 328.48666049 131.22621333 331.0625 133.5 C340.31996188 141.81526463 349.17598953 150.66308627 357.1875 160.1875 C358.0846028 161.22251253 358.98318275 162.25624562 359.8828125 163.2890625 C366.91898926 171.38754152 373.689855 179.65083617 380.1875 188.1875 C380.72632813 188.89503418 381.26515625 189.60256836 381.8203125 190.33154297 C438.05123537 264.55186782 462.72782765 351.34887912 469.875 443.0625 C469.96640762 444.22378922 469.96640762 444.22378922 470.05966187 445.40853882 C471.80012433 467.88963706 472.37427122 490.37576649 472.37280273 512.91992188 C472.37501449 516.71234977 472.39334247 520.50449713 472.41210938 524.296875 C472.45690696 542.7356675 470.98496026 559.95977539 467.0625 578 C466.91132721 578.70338501 466.76015442 579.40677002 466.60440063 580.13146973 C455.9141555 629.63410879 437.34025329 676.08846216 411.48828125 719.58203125 C409.03986901 723.70739993 406.69335183 727.87114539 404.41503906 732.09228516 C398.55627516 742.9430302 391.83937922 753.1866607 385.00976562 763.44677734 C383.3354978 765.96490845 381.67325708 768.49043122 380.015625 771.01953125 C368.19604165 788.99651783 355.31931738 806.15399743 342.1875 823.1875 C341.66381836 823.8686084 341.14013672 824.5497168 340.60058594 825.25146484 C334.21753131 833.53827518 327.55667305 841.53996909 320.69921875 849.4375 C319.19508181 851.17872312 317.7048377 852.93085807 316.21875 854.6875 C310.5464102 861.38252189 304.74744975 867.92169994 298.72680664 874.30664062 C298.22141357 874.84353516 297.71602051 875.38042969 297.1953125 875.93359375 C296.70063477 876.45808105 296.20595703 876.98256836 295.69628906 877.52294922 C293.55030203 879.89047989 291.55898995 882.38069126 289.57763672 884.88696289 C288.1875 886.1875 288.1875 886.1875 285.1875 886.1875 C285.05601562 887.04021484 285.05601562 887.04021484 284.921875 887.91015625 C281.4233865 898.75919239 265.06258226 910.88814362 256.46484375 918.1953125 C253.19682835 921.05412529 250.0422657 924.03044323 246.875 927 C238.12054883 935.19285302 229.3862385 943.32329847 220.046875 950.85546875 C217.5498387 952.89198606 215.09596052 954.97007977 212.65356445 957.0715332 C205.16555244 963.50017019 197.38809773 969.50441836 189.50585938 975.43994141 C187.11906995 977.23908196 184.73903319 979.04690947 182.359375 980.85546875 C171.58639376 989.01800844 160.65887829 996.92410716 149.52099609 1004.58154297 C147.98460395 1005.63891768 146.45099094 1006.70034381 144.92041016 1007.76611328 C142.84923868 1009.20791558 140.77004481 1010.637193 138.6875 1012.0625 C138.08252686 1012.48571533 137.47755371 1012.90893066 136.85424805 1013.3449707 C133.57202182 1015.56253807 132.288772 1016.1875 128.1875 1016.1875 C128.1875 1016.8475 128.1875 1017.5075 128.1875 1018.1875 C128.9196875 1018.27386719 129.651875 1018.36023437 130.40625 1018.44921875 C133.75846654 1019.33906275 135.18248071 1020.61937379 137.6875 1023 C138.54085938 1023.804375 139.39421875 1024.60875 140.2734375 1025.4375 C140.73459961 1025.87707031 141.19576172 1026.31664062 141.67089844 1026.76953125 C143.3274676 1028.31836475 145.02208452 1029.81660234 146.7265625 1031.3125 C147.92191966 1032.37494976 149.11723264 1033.43744921 150.3125 1034.5 C150.89322266 1035.00313721 151.47394531 1035.50627441 152.07226562 1036.0246582 C153.6953125 1037.48828125 153.6953125 1037.48828125 156.1875 1040.1875 C156.1875 1041.5075 156.1875 1042.8275 156.1875 1044.1875 C156.75339844 1044.24164062 157.31929687 1044.29578125 157.90234375 1044.3515625 C170.59243448 1048.99374954 180.94562924 1075.87221195 186.33374023 1087.43188477 C198.46242235 1114.70501253 203.5169445 1144.00002936 206.92578125 1173.453125 C209.37000745 1194.3917122 213.82534298 1211.79881076 229.1875 1227.1875 C229.77917969 1227.79078125 230.37085938 1228.3940625 230.98046875 1229.015625 C235.81605107 1233.58434296 241.36402284 1236.78841583 247.03222656 1240.19726562 C252.95452237 1243.84644088 257.85241748 1248.10212332 262.83203125 1252.9375 C265.17031355 1255.30143066 265.17031355 1255.30143066 268.1875 1257.1875 C268.1875 1258.5075 268.1875 1259.8275 268.1875 1261.1875 C268.75597656 1261.2596875 269.32445312 1261.331875 269.91015625 1261.40625 C284.29050913 1266.33947569 297.86656873 1293.62915504 305.1875 1306.1875 C305.62803711 1306.93837891 306.06857422 1307.68925781 306.52246094 1308.46289062 C326.98537528 1343.63760924 338.94725779 1381.87137013 342.375 1422.375 C342.47208252 1423.47553711 342.56916504 1424.57607422 342.66918945 1425.70996094 C343.2010241 1433.02306687 343.08592979 1440.04958896 342.60546875 1447.35546875 C340.76114741 1464.19401323 340.76114741 1464.19401323 344.8515625 1480.02978516 C349.29486715 1484.4680406 354.64480702 1486.72226208 360.42480469 1488.97998047 C364.98591224 1490.97355045 368.75180967 1493.92897769 372.6875 1496.9375 C374.17162787 1498.02685338 375.65725681 1499.11416527 377.14453125 1500.19921875 C378.49250066 1501.19488868 379.84018093 1502.19095023 381.1875 1503.1875 C382.27473673 1503.98568097 383.36197606 1504.7838584 384.44921875 1505.58203125 C392.53198696 1511.57126537 400.36783307 1517.86147732 408.1875 1524.1875 C409.1465625 1524.9609375 410.105625 1525.734375 411.09375 1526.53125 C417.99615771 1532.13438096 424.76501151 1537.89202401 431.47460938 1543.72412109 C432.68908776 1544.76169 433.92161131 1545.7783038 435.16601562 1546.77978516 C436.12797852 1547.56361572 436.12797852 1547.56361572 437.109375 1548.36328125 C437.6981543 1548.83290283 438.28693359 1549.30252441 438.89355469 1549.78637695 C440.1875 1551.1875 440.1875 1551.1875 440.1875 1554.1875 C440.77917969 1554.29835938 441.37085938 1554.40921875 441.98046875 1554.5234375 C449.64569425 1556.82978853 456.16538024 1566.12824621 461.67895508 1571.69995117 C464.92201296 1574.96660676 468.16986317 1578.15012354 471.6875 1581.125 C474.78508586 1583.75465267 477.38293539 1586.59087078 480.0078125 1589.6875 C482.98361003 1593.10060111 486.08746127 1596.38741966 489.1875 1599.6875 C493.95297354 1604.77438755 498.66799955 1609.87936189 503.1875 1615.1875 C503.98027344 1616.10144531 504.77304688 1617.01539062 505.58984375 1617.95703125 C511.94612593 1625.32766334 517.91008726 1632.95035464 523.78125 1640.7109375 C526.10661436 1643.78122963 528.46181884 1646.82494552 530.84375 1649.8515625 C531.45436279 1650.62862549 532.06497559 1651.40568848 532.6940918 1652.20629883 C533.84838529 1653.67237796 535.00579982 1655.13600865 536.16723633 1656.59643555 C540.08362172 1661.58161779 543.6323597 1666.75366922 547.1184082 1672.04760742 C549.1577777 1675.14239575 551.22830729 1678.2138501 553.30859375 1681.28125 C599.179197 1749.21204423 633.49905701 1823.40748895 676 2027.375 C676.11190674 2028.35645996 676.22381348 2029.33791992 676.33911133 2030.34912109 C678.53389568 2051.50396495 678.34915868 2072.81933787 678.31787109 2094.06079102 C678.31212989 2097.99013089 678.3154985 2101.91940307 678.32144356 2105.84874058 C678.32508837 2108.93318679 678.3238935 2112.0176174 678.32131577 2115.10206413 C678.32065964 2116.55023139 678.32142756 2117.99840016 678.32379532 2119.44656563 C678.3570443 2145.43318354 678.3570443 2145.43318354 675.1875 2150.1875 C673.40454102 2150.55981445 673.40454102 2150.55981445 671.19140625 2150.55078125 C670.33885254 2150.55150635 669.48629883 2150.55223145 668.60791016 2150.55297852 C667.6647998 2150.53549561 666.72168945 2150.5180127 665.75 2150.5 C664.76821777 2150.490896 663.78643555 2150.48179199 662.77490234 2150.47241211 C652.94442577 2150.31794812 643.12768148 2149.79505841 633.3125 2149.25 C632.12408005 2149.18505844 632.12408005 2149.18505844 630.91165161 2149.11880493 C628.65163203 2148.9928301 626.39220591 2148.85936033 624.1328125 2148.72265625 C622.81812988 2148.644104 621.50344727 2148.56555176 620.14892578 2148.48461914 C617.1875 2148.1875 617.1875 2148.1875 616.1875 2147.1875 C615.6711016 2140.84440637 617.28105289 2135.33680147 618.9375 2129.25 C637.39725018 2057.96092936 627.46054048 1978.72713731 590.6015625 1914.61328125 C579.62874551 1896.05931742 566.83697175 1878.28923082 552.234375 1862.41796875 C550.34078813 1860.35453726 548.50923836 1858.25175419 546.6875 1856.125 C539.53402912 1847.95429244 531.71061752 1840.90130419 523.1875 1834.1875 C522.21167969 1833.40632813 521.23585938 1832.62515625 520.23046875 1831.8203125 C467.76371697 1790.50687022 403.72446986 1767.97858135 337 1767.9375 C336.01640503 1767.93682526 335.03281006 1767.93615051 334.01940918 1767.93545532 C319.19355047 1767.95160911 304.79242178 1768.41080023 290.1875 1771.1875 C288.61838867 1771.48479004 288.61838867 1771.48479004 287.01757812 1771.78808594 C278.609337 1773.41572719 270.20267822 1775.08516342 261.9375 1777.33984375 C258.11017732 1778.20497815 255.07638449 1778.34953685 251.1875 1778.1875 C251.09774902 1777.59549805 251.00799805 1777.00349609 250.91552734 1776.39355469 C245.38194209 1740.62853919 233.04269901 1709.84854491 209.1875 1682.1875 C208.76210937 1681.69362793 208.33671875 1681.19975586 207.8984375 1680.69091797 C201.5666294 1673.39869307 194.920459 1667.02690453 187.1875 1661.1875 C186.41148438 1660.59582031 185.63546875 1660.00414063 184.8359375 1659.39453125 C150.45244654 1634.26813401 107.3342013 1624.02163015 65.32421875 1629.84912109 C60.90390103 1630.54913942 56.5620918 1631.58119911 52.203125 1632.58984375 C48.41470261 1633.34065803 45.03146031 1633.41813762 41.1875 1633.1875 C41.15957581 1631.29175785 41.14070554 1629.39588275 41.125 1627.5 C41.11339844 1626.44425781 41.10179687 1625.38851562 41.08984375 1624.30078125 C41.11684649 1621.08990954 41.38211154 1617.93519204 41.67578125 1614.73828125 C43.8932855 1587.08970244 44.00222395 1557.53959489 39.1875 1530.1875 C38.98350586 1529.02637695 38.77951172 1527.86525391 38.56933594 1526.66894531 C35.98822932 1512.46346624 32.7219719 1498.54400566 28.37207031 1484.77270508 C26.91544492 1480.10615463 25.77369333 1476.1449039 26.1875 1471.1875 C62.5594158 1462.03645605 103.23447451 1460.30495666 140.1875 1467.1875 C141.64712158 1467.43693359 141.64712158 1467.43693359 143.13623047 1467.69140625 C179.79277803 1473.9704025 214.90772788 1486.73250787 247.1875 1505.1875 C211.13431504 1470.35027406 164.8691789 1448.62050428 115.1875 1442.1875 C114.49769043 1442.0932373 113.80788086 1441.99897461 113.09716797 1441.90185547 C104.45636585 1440.86953908 95.75213282 1440.94375352 87.0625 1440.9375 C86.21913086 1440.93682526 85.37576172 1440.93615051 84.50683594 1440.93545532 C62.13202688 1440.96380537 39.55349685 1443.06550105 18.1875 1450.1875 C16.79310336 1450.25415376 15.39580125 1450.27288199 14 1450.25 C12.741875 1450.229375 11.48375 1450.20875 10.1875 1450.1875 C9.79594727 1449.04200684 9.40439453 1447.89651367 9.00097656 1446.71630859 C-1.39923334 1416.34688826 -12.14400382 1386.27252612 -25.8125 1357.1875 C-26.23402344 1356.28418945 -26.65554688 1355.38087891 -27.08984375 1354.45019531 C-39.32181334 1328.31100812 -52.36593516 1302.53619294 -67.24951172 1277.80029297 C-68.69071971 1275.39107587 -70.1027235 1272.9678014 -71.50390625 1270.53515625 C-78.20127701 1259.00141049 -85.5438277 1247.90681192 -92.9375 1236.8125 C-93.44883484 1236.04450073 -93.96016968 1235.27650146 -94.48699951 1234.48522949 C-102.89538081 1221.87451177 -111.52484074 1209.43656286 -120.625 1197.3125 C-121.11726074 1196.65596436 -121.60952148 1195.99942871 -122.11669922 1195.32299805 C-126.3113019 1189.77046371 -130.67345534 1184.36462217 -135.09033203 1178.98803711 C-138.48608338 1174.84873156 -141.775376 1170.64847472 -145 1166.375 C-148.92639756 1161.22479022 -153.10461063 1156.41800536 -157.5078125 1151.671875 C-159.50378512 1149.52028418 -161.45142978 1147.34109472 -163.375 1145.125 C-166.7508597 1141.24077554 -170.19598068 1137.42164593 -173.6484375 1133.60546875 C-175.44681152 1131.59609416 -177.1961628 1129.55834987 -178.9375 1127.5 C-181.35714361 1124.6876696 -183.92335556 1122.07967658 -186.58203125 1119.49609375 C-187.26442871 1118.82989014 -187.94682617 1118.16368652 -188.64990234 1117.47729492 C-190.03592905 1116.13106693 -191.43066781 1114.79374355 -192.83447266 1113.46606445 C-193.47562012 1112.84304443 -194.11676758 1112.22002441 -194.77734375 1111.578125 C-195.3612085 1111.02157227 -195.94507324 1110.46501953 -196.54663086 1109.89160156 C-197.8125 1108.1875 -197.8125 1108.1875 -197.8125 1104.1875 C-198.8025 1104.1875 -199.7925 1104.1875 -200.8125 1104.1875 C-200.8125 1103.1975 -200.8125 1102.2075 -200.8125 1101.1875 C-201.69808594 1101.02121094 -201.69808594 1101.02121094 -202.6015625 1100.8515625 C-207.73428578 1099.30993183 -211.48436399 1094.69147318 -214.75 1090.625 C-221.82699013 1082.22920069 -229.7695112 1081.06844421 -240.28222656 1079.91699219 C-275.83992968 1076.00577225 -317.67143343 1067.68747883 -344.8125 1042.1875 C-345.1425 1041.1975 -345.4725 1040.2075 -345.8125 1039.1875 C-343.47129745 1038.01689873 -342.0050569 1038.03339807 -339.39453125 1037.9765625 C-338.02506348 1037.93740723 -338.02506348 1037.93740723 -336.62792969 1037.89746094 C-335.14147949 1037.85540527 -335.14147949 1037.85540527 -333.625 1037.8125 C-296.50946778 1036.42489449 -262.94378994 1028.87950505 -236.6875 1000.9375 C-214.36992247 974.98265129 -205.01156586 935.78557245 -206.8125 902.1875 C-209.54948152 869.58251879 -221.88334871 842.72502343 -246.8125 821.1875 C-269.78458781 802.51464056 -298.2874 793.0940472 -327.8125 795.1875 C-332.43265091 796.00917318 -336.5111243 797.33087403 -340.8125 799.1875 C-341.83601562 799.62320313 -342.85953125 800.05890625 -343.9140625 800.5078125 C-351.06416945 803.82039369 -356.88778866 808.0355771 -362.8125 813.1875 C-363.62332031 813.84234375 -364.43414063 814.4971875 -365.26953125 815.171875 C-384.00888916 830.87162053 -396.2611847 856.01403382 -398.8125 880.1875 C-399.10911215 886.43324743 -399.00314776 892.68733824 -398.9375 898.9375 C-398.92744397 900.61718213 -398.91832278 902.29687012 -398.91015625 903.9765625 C-398.88836468 908.04702282 -398.85398163 912.11719468 -398.8125 916.1875 C-402.25546093 915.67871499 -405.37874189 915.14675106 -408.5625 913.7265625 C-409.24159424 913.42596924 -409.92068848 913.12537598 -410.62036133 912.81567383 C-411.34376709 912.48462646 -412.06717285 912.1535791 -412.8125 911.8125 C-413.58940186 911.46018311 -414.36630371 911.10786621 -415.16674805 910.74487305 C-417.72254714 909.57395985 -420.2688822 908.38463606 -422.8125 907.1875 C-423.68600098 906.77677246 -424.55950195 906.36604492 -425.45947266 905.94287109 C-445.61016828 896.37504671 -464.32378121 885.04421617 -481.8125 871.1875 C-482.81667969 870.39601563 -483.82085938 869.60453125 -484.85546875 868.7890625 C-490.50913462 864.24380221 -495.90132544 859.45017107 -501.2421875 854.54296875 C-505.67720334 850.47866092 -510.16778791 846.49655656 -514.875 842.75 C-517.80327697 840.19554562 -520.21975512 837.53374942 -522.7265625 834.578125 C-524.6962323 832.32075062 -526.74707597 830.16231816 -528.82226562 828.00244141 C-554.92456552 800.59160551 -575.22178494 765.49531694 -589.96875 730.85400391 C-590.24364258 730.21034378 -590.51853516 729.56668365 -590.80175781 728.90351868 C-591.47283512 727.33186656 -592.14278438 725.75973285 -592.8125 724.1875 C-593.51382773 724.2029612 -594.21515547 724.21842239 -594.93773556 724.23435211 C-617.70814243 724.73544404 -640.47890841 725.21857156 -663.25 725.6875 C-664.1155249 725.70534562 -664.9810498 725.72319123 -665.87280273 725.74157763 C-710.18615525 726.6541928 -754.48743533 727.49779829 -798.8125 727.375 C-799.74663097 727.37243195 -800.68076195 727.36986389 -801.64319992 727.36721802 C-812.36652752 727.33535151 -823.08950797 727.2793816 -833.8125 727.1875 C-833.74185333 727.87261154 -833.67120667 728.55772308 -833.59841919 729.26359558 C-832.79614504 737.78307325 -832.66579568 746.25252908 -832.6796875 754.80078125 C-832.67901036 756.30120357 -832.67803698 757.80162578 -832.67678833 759.30204773 C-832.67532195 762.44283089 -832.67742578 765.58358544 -832.68212891 768.72436523 C-832.68773284 772.64791623 -832.68449783 776.57139804 -832.67869663 780.49494648 C-832.64492714 807.31703327 -832.99215448 834.1240622 -835.125 860.875 C-835.18874817 861.69626373 -835.25249634 862.51752747 -835.31817627 863.36367798 C-838.45057346 903.53248742 -843.45131242 942.39317897 -855.9375 980.875 C-863.74037455 1004.93494012 -867.01184286 1029.31070976 -866.9375 1054.5625 C-866.94136719 1055.83738281 -866.94523438 1057.11226562 -866.94921875 1058.42578125 C-866.93748239 1070.36165558 -866.3919799 1082.26730511 -865.8125 1094.1875 C-831.32114394 1088.03589729 -797.12509602 1081.64903552 -763.40429688 1072.03125 C-762.39672836 1071.74724586 -762.39672836 1071.74724586 -761.36880493 1071.45750427 C-759.55027904 1070.94419521 -757.73380096 1070.42364688 -755.91748047 1069.90258789 C-753.07871887 1069.24881114 -750.70845366 1069.03805985 -747.8125 1069.1875 C-748.63302939 1087.73146411 -757.76149481 1103.66345511 -770.9375 1116.375 C-784.5545294 1127.93662873 -802.74158223 1132.43340808 -820.25 1132.25 C-821.07693359 1132.24548828 -821.90386719 1132.24097656 -822.75585938 1132.23632812 C-824.77477146 1132.22465811 -826.79364574 1132.20672718 -828.8125 1132.1875 C-827.61666799 1149.60738118 -825.46750899 1164.79084832 -814.8125 1179.1875 C-814.40257812 1179.80238281 -813.99265625 1180.41726563 -813.5703125 1181.05078125 C-808.17216829 1188.55234027 -799.47406005 1189.53695048 -790.97070312 1190.97998047 C-777.08971421 1193.44576772 -764.80524761 1199.97915774 -753.625 1208.375 C-752.75875 1209.01731567 -752.75875 1209.01731567 -751.875 1209.67260742 C-750.26953125 1210.91796875 -750.26953125 1210.91796875 -747.8125 1213.1875 C-747.8125 1214.1775 -747.8125 1215.1675 -747.8125 1216.1875 C-747.255625 1216.27 -746.69875 1216.3525 -746.125 1216.4375 C-740.4356857 1218.28268301 -737.34277886 1222.87390312 -734.3125 1227.75 C-733.73157593 1228.67329102 -733.73157593 1228.67329102 -733.13891602 1229.61523438 C-724.43084892 1243.71730828 -724.43084892 1243.71730828 -724.8125 1252.1875 C-730.40433533 1251.44136305 -735.11270603 1249.57917402 -740.30078125 1247.44140625 C-756.87576225 1241.52308712 -774.89440963 1242.52028864 -790.7109375 1250.01171875 C-794.11697303 1251.66699228 -797.47176976 1253.40444158 -800.8125 1255.1875 C-802.6904217 1296.08446146 -793.43798063 1342.53698582 -766.68359375 1374.62890625 C-762.67944298 1377.96430532 -757.55633991 1378.49064081 -752.515625 1379.00390625 C-751.31881104 1379.12789795 -750.12199707 1379.25188965 -748.88891602 1379.37963867 C-747.62619873 1379.50185791 -746.36348145 1379.62407715 -745.0625 1379.75 C-743.75788818 1379.87930908 -742.45327637 1380.00861816 -741.10913086 1380.1418457 C-731.34921733 1381.08682153 -721.61598231 1381.92700003 -711.8125 1382.1875 C-711.02552734 1382.20941406 -710.23855469 1382.23132812 -709.42773438 1382.25390625 C-609.7823732 1384.58388352 -508.56033401 1348.83937742 -435.40625 1280.6015625 C-433.24077689 1278.5861071 -431.04972249 1276.62214732 -428.8125 1274.6875 C-425.31464345 1271.64716899 -421.86755598 1268.55388103 -418.4375 1265.4375 C-417.91285156 1264.96505859 -417.38820313 1264.49261719 -416.84765625 1264.00585938 C-414.46727306 1261.83368202 -412.61144729 1259.88592093 -410.8125 1257.1875 C-409.8225 1257.1875 -408.8325 1257.1875 -407.8125 1257.1875 C-407.73 1256.62160156 -407.6475 1256.05570313 -407.5625 1255.47265625 C-406.57757817 1252.47172255 -404.98353622 1250.91288018 -402.8125 1248.625 C-375.08387085 1218.62567995 -354.87228662 1182.5951892 -336.8125 1146.1875 C-335.8225 1146.1875 -334.8325 1146.1875 -333.8125 1146.1875 C-333.13721522 1208.9746926 -333.13721522 1208.9746926 -336.8125 1239.1875 C-336.89735657 1239.88607117 -336.98221313 1240.58464233 -337.06964111 1241.30438232 C-342.82710014 1287.92683376 -355.29515242 1333.43131144 -374.8125 1376.1875 C-375.47538624 1377.66661028 -376.13815491 1379.14577327 -376.80078125 1380.625 C-386.23715858 1401.42449045 -397.69565252 1421.58955292 -410.6796875 1440.37890625 C-411.12618652 1441.02802979 -411.57268555 1441.67715332 -412.03271484 1442.34594727 C-413.20491426 1444.03268901 -414.39830519 1445.70465246 -415.59375 1447.375 C-422.18554623 1457.88680024 -424.28609633 1469.99050449 -426.375 1482 C-426.52246674 1482.82830322 -426.66993347 1483.65660645 -426.8218689 1484.51000977 C-430.73700819 1506.52632281 -433.71017831 1528.54411532 -434.91796875 1550.8828125 C-434.96110703 1551.67434849 -435.0042453 1552.46588448 -435.0486908 1553.2814064 C-436.30504621 1577.19035381 -435.95627797 1601.13023479 -435.8125 1625.0625 C-435.76461586 1633.09605086 -435.72416965 1641.12951935 -435.70062256 1649.1631813 C-435.6880031 1652.30445505 -435.66303909 1655.44545133 -435.63720703 1658.5866394 C-435.19535042 1744.03120624 -470.99215407 1823.01856991 -530.28125 1883.71484375 C-532.11402987 1885.55085035 -533.95902031 1887.37248539 -535.8125 1889.1875 C-528.57160113 1887.26617053 -521.4099112 1885.17627171 -514.27734375 1882.88671875 C-512.80776718 1882.41766365 -512.80776718 1882.41766365 -511.3085022 1881.93913269 C-508.12142014 1880.92058764 -504.93562529 1879.89809143 -501.75 1878.875 C-500.64703583 1878.52157532 -499.54407166 1878.16815063 -498.40768433 1877.80401611 C-481.62789466 1872.42548144 -464.89277116 1866.92330342 -448.18579102 1861.32324219 C-436.37193221 1857.36448592 -424.53854177 1853.47096788 -412.6875 1849.625 C-395.20339407 1843.94981705 -377.73365426 1838.23158918 -360.26924515 1832.49614716 C-354.04292303 1830.45141684 -347.81643909 1828.4071794 -341.58984375 1826.36328125 C-340.91266233 1826.1409935 -340.23548092 1825.91870575 -339.53777885 1825.68968201 C-326.61259754 1821.44728711 -313.68261674 1817.21967267 -300.75 1813 C-296.79556532 1811.70965869 -292.84113422 1810.41930643 -288.88671875 1809.12890625 C-287.90709167 1808.80923889 -286.9274646 1808.48957153 -285.91815186 1808.16021729 C-273.96423983 1804.25884563 -262.0131795 1800.34876049 -250.0625 1796.4375 C-248.92634247 1796.06565582 -247.79018494 1795.69381165 -246.61959839 1795.31069946 C-226.26274777 1788.64773551 -205.90902796 1781.97522657 -185.55635929 1775.29950142 C-172.30113745 1770.95182958 -159.04474137 1766.60778885 -145.78515625 1762.2734375 C-144.57318573 1761.87714142 -143.36121521 1761.48084534 -142.11251831 1761.07254028 C-136.23572489 1759.15097955 -130.35851712 1757.23070682 -124.48046875 1755.31298828 C-114.95884545 1752.20371814 -105.44295719 1749.08357098 -95.96484375 1745.84375 C-94.88234093 1745.47535507 -94.88234093 1745.47535507 -93.77796936 1745.09951782 C-90.6107732 1744.02139138 -87.44793557 1742.93444873 -84.29125977 1741.82568359 C-83.24639404 1741.46812988 -82.20152832 1741.11057617 -81.125 1740.7421875 C-80.25488281 1740.43780762 -79.38476562 1740.13342773 -78.48828125 1739.81982422 C-75.20959438 1739.04502504 -72.16905465 1739.08454772 -68.8125 1739.1875 C-68.79062622 1740.67237915 -68.79062622 1740.67237915 -68.76831055 1742.18725586 C-67.76348062 1805.51469616 -53.02384979 1863.1252044 -9.109375 1910.69921875 C-7.47216262 1912.4728655 -5.86011874 1914.26988422 -4.265625 1916.08203125 C12.37891219 1934.93467264 33.11175645 1947.52038262 55.1875 1959.1875 C54.74224157 1966.69212851 52.72549609 1973.19412582 50.29525757 1980.28433228 C36.43185116 2020.94161363 29.04409759 2063.12803208 25.5 2105.875 C25.43915222 2106.59386383 25.37830444 2107.31272766 25.31561279 2108.05337524 C24.47648394 2118.1245091 24.00534612 2128.19280905 23.64916992 2138.29223633 C23.60424156 2139.53635536 23.5593132 2140.7804744 23.51302338 2142.06229401 C23.40334653 2145.10398938 23.29486587 2148.14572233 23.1875 2151.1875 C-47.76346236 2151.43873633 -118.66742827 2150.91117043 -189.60621515 2149.60391726 C-198.71344927 2149.43640819 -207.82076372 2149.27389589 -216.92814445 2149.11456871 C-217.59420252 2149.10291477 -218.26026059 2149.09126083 -218.94650224 2149.07925374 C-222.34084471 2149.01988675 -225.73518852 2148.96059645 -229.12953288 2148.90133794 C-253.05293086 2148.48357143 -276.976169 2148.05725256 -300.89932251 2147.62573242 C-324.21937203 2147.20513934 -347.53948951 2146.78865557 -370.85971069 2146.37768555 C-371.58771028 2146.36485541 -372.31570986 2146.35202527 -373.06577003 2146.33880634 C-382.63490858 2146.17017921 -392.20405155 2146.00180443 -401.773196 2145.83351246 C-412.78910851 2145.63977212 -423.8050178 2145.44584806 -434.82092754 2145.25195016 C-438.48032506 2145.1875394 -442.13972271 2145.1231363 -445.79912066 2145.0587499 C-465.43272129 2144.71329457 -485.06629821 2144.36652401 -504.69985413 2144.01853687 C-572.00968211 2142.82555266 -639.31982639 2141.65673798 -706.63126242 2140.5574834 C-709.42122694 2140.51192071 -712.21119096 2140.46632704 -715.0011549 2140.42072892 C-747.40341805 2139.89128927 -779.8057878 2139.36851776 -812.20821967 2138.84951437 C-824.53035661 2138.6521454 -836.85247389 2138.45358359 -849.17457515 2138.25399917 C-855.61224295 2138.14980227 -862.04992242 2138.04645023 -868.48763847 2137.94527245 C-911.36580666 2137.27119324 -911.36580666 2137.27119324 -931.96543348 2136.75635147 C-933.58346972 2136.71615763 -935.20154215 2136.67739144 -936.81964934 2136.64016342 C-938.99432013 2136.58935362 -941.16872862 2136.53232843 -943.34318542 2136.47314453 C-944.55335925 2136.44205597 -945.76353308 2136.41096741 -947.01037884 2136.37893677 C-949.8125 2136.1875 -949.8125 2136.1875 -951.8125 2135.1875 C-950.38277392 2130.63538362 -948.0838807 2128.11427399 -944.6875 2124.8125 C-944.1917749 2124.32773193 -943.6960498 2123.84296387 -943.18530273 2123.34350586 C-939.88543461 2120.14183856 -936.47042245 2117.1095489 -932.97265625 2114.12890625 C-930.14367302 2111.58640234 -927.48480656 2108.89292065 -924.8125 2106.1875 C-921.58852207 2102.92367068 -918.37732126 2099.71919836 -914.875 2096.75 C-911.15292257 2093.58739976 -907.74384463 2090.1577874 -904.3125 2086.6875 C-897.60093956 2079.90002766 -897.60093956 2079.90002766 -893.9375 2076.8125 C-887.15576648 2071.06182233 -881.06248673 2064.50198514 -874.8125 2058.1875 C-868.45144724 2051.77306777 -868.45144724 2051.77306777 -864.8125 2049.1875 C-863.8225 2049.1875 -862.8325 2049.1875 -861.8125 2049.1875 C-861.71356445 2048.60250732 -861.61462891 2048.01751465 -861.51269531 2047.41479492 C-860.19673034 2043.2287599 -856.61933537 2040.52517323 -853.5625 2037.5 C-852.89347656 2036.81099609 -852.22445312 2036.12199219 -851.53515625 2035.41210938 C-850.55095703 2034.42887695 -850.55095703 2034.42887695 -849.546875 2033.42578125 C-848.95100586 2032.82805908 -848.35513672 2032.23033691 -847.74121094 2031.61450195 C-845.45272676 2029.92131334 -843.60854644 2029.55462415 -840.8125 2029.1875 C-840.8125 2028.1975 -840.8125 2027.2075 -840.8125 2026.1875 C-839.8225 2026.1875 -838.8325 2026.1875 -837.8125 2026.1875 C-837.71066406 2025.59582031 -837.60882812 2025.00414063 -837.50390625 2024.39453125 C-836.691756 2021.80207424 -835.7043639 2020.74032682 -833.75 2018.875 C-833.110625 2018.26140625 -832.47125 2017.6478125 -831.8125 2017.015625 C-829.98710262 2015.3470977 -828.13094044 2013.73028538 -826.25 2012.125 C-819.7495597 2006.52952296 -813.84015561 2000.28095567 -807.8125 1994.1875 C-801.68011964 1988.00365911 -801.68011964 1988.00365911 -798.8125 1986.1875 C-797.8225 1986.1875 -796.8325 1986.1875 -795.8125 1986.1875 C-795.72097656 1985.60613281 -795.62945313 1985.02476563 -795.53515625 1984.42578125 C-794.63377302 1981.63392941 -793.35909373 1980.40154603 -791.25 1978.375 C-790.5178125 1977.66859375 -789.785625 1976.9621875 -789.03125 1976.234375 C-787.13607653 1974.48601074 -785.21333429 1972.79555637 -783.25 1971.125 C-779.05294731 1967.52633898 -775.19987358 1963.61290585 -771.3125 1959.6875 C-763.46227688 1951.76099632 -763.46227688 1951.76099632 -759.8125 1948.6875 C-757.16143872 1946.41020503 -754.63494487 1944.06492624 -752.17578125 1941.58203125 C-751.51126953 1940.91429688 -750.84675781 1940.2465625 -750.16210938 1939.55859375 C-748.83121963 1938.21366778 -747.50297339 1936.86611933 -746.17773438 1935.515625 C-742.86679668 1932.15989834 -739.5273006 1929.10198449 -735.8125 1926.1875 C-734.46955519 1924.52856818 -733.13505312 1922.86273395 -731.8125 1921.1875 C-728.8125 1919.1875 -728.8125 1919.1875 -725.8125 1919.1875 C-725.70220459 1918.58969727 -725.59190918 1917.99189453 -725.47827148 1917.37597656 C-724.74069513 1914.95146815 -723.94072029 1913.94148992 -722.16015625 1912.171875 C-721.36641602 1911.37910156 -721.36641602 1911.37910156 -720.55664062 1910.5703125 C-720.00169922 1910.03148438 -719.44675781 1909.49265625 -718.875 1908.9375 C-718.32392578 1908.38320312 -717.77285156 1907.82890625 -717.20507812 1907.2578125 C-713.07962592 1903.1875 -713.07962592 1903.1875 -710.8125 1903.1875 C-710.8125 1902.5275 -710.8125 1901.8675 -710.8125 1901.1875 C-709.51953125 1899.8828125 -709.51953125 1899.8828125 -707.625 1898.3125 C-696.89548838 1889.15043008 -686.86955146 1879.35184053 -676.96777344 1869.3059082 C-672.67007599 1864.96335407 -668.30915198 1860.80285941 -663.67260742 1856.82495117 C-660.68057432 1854.19106667 -657.90834652 1851.35098556 -655.125 1848.5 C-651.50497824 1844.79388973 -647.868366 1841.42269746 -643.8125 1838.1875 C-642.54823865 1836.84469736 -641.31619709 1835.47052173 -640.125 1834.0625 C-638.3968353 1832.03161909 -636.69895821 1830.07395821 -634.8125 1828.1875 C-633.4925 1828.1875 -632.1725 1828.1875 -630.8125 1828.1875 C-630.72097656 1827.60613281 -630.62945313 1827.02476563 -630.53515625 1826.42578125 C-629.63377302 1823.63392941 -628.35909373 1822.40154603 -626.25 1820.375 C-625.28900391 1819.43720703 -625.28900391 1819.43720703 -624.30859375 1818.48046875 C-622.25765861 1816.59643287 -620.17615665 1814.7737752 -618.06640625 1812.95703125 C-613.60352674 1809.06973904 -609.45777339 1804.90827928 -605.3125 1800.6875 C-601.26647993 1796.56778193 -597.23578264 1792.49323024 -592.85546875 1788.7265625 C-588.21446943 1784.73290552 -583.92893542 1780.41333496 -579.625 1776.0625 C-578.84447266 1775.27746094 -578.06394531 1774.49242188 -577.25976562 1773.68359375 C-574.59030745 1770.99828638 -571.92393225 1768.30994172 -569.25976562 1765.61938477 C-566.23608411 1762.57700357 -563.22686522 1759.78538658 -559.8125 1757.1875 C-558.8225 1757.1875 -557.8325 1757.1875 -556.8125 1757.1875 C-556.75433105 1756.63747314 -556.69616211 1756.08744629 -556.63623047 1755.52075195 C-555.46093219 1752.19166908 -553.14215903 1750.22502624 -550.6328125 1747.85546875 C-549.55226232 1746.80696171 -548.47211799 1745.75803629 -547.39233398 1744.70874023 C-546.82715057 1744.16434296 -546.26196716 1743.61994568 -545.67965698 1743.05905151 C-519.62980353 1717.87802846 -503.49554083 1689.79388579 -502.7578125 1652.41674805 C-502.60264426 1595.9597546 -521.38391975 1541.32212988 -544.3046875 1490.35546875 C-544.58588943 1489.72926636 -544.86709137 1489.10306396 -545.15681458 1488.45788574 C-546.48985367 1485.49645092 -547.83748815 1482.54301436 -549.20678711 1479.59814453 C-549.68124268 1478.56157715 -550.15569824 1477.52500977 -550.64453125 1476.45703125 C-551.06452393 1475.55573486 -551.4845166 1474.65443848 -551.91723633 1473.72583008 C-552.86332927 1471.04338439 -552.98864343 1469.00928608 -552.8125 1466.1875 C-553.41497559 1466.24284912 -554.01745117 1466.29819824 -554.63818359 1466.35522461 C-557.48766829 1466.61507988 -560.33757455 1466.87002571 -563.1875 1467.125 C-564.13367188 1467.21201172 -565.07984375 1467.29902344 -566.0546875 1467.38867188 C-581.4032712 1468.75186845 -596.71832355 1469.39816615 -612.125 1469.375 C-612.94398773 1469.37406342 -613.76297546 1469.37312683 -614.60678101 1469.37216187 C-649.91788153 1469.28558683 -684.69889065 1465.53133855 -718.8125 1456.1875 C-720.25278564 1455.79739746 -720.25278564 1455.79739746 -721.72216797 1455.39941406 C-760.28018312 1444.78735465 -795.13436836 1426.3583651 -824.56640625 1399.24609375 C-826.7127972 1397.27887979 -828.90795272 1395.38676091 -831.125 1393.5 C-840.75435369 1385.03548748 -843.137531 1376.47068633 -844.4375 1364 C-844.56229736 1362.84798096 -844.68709473 1361.69596191 -844.81567383 1360.5090332 C-845.90265824 1350.07268452 -846.59871609 1339.67716361 -846.8125 1329.1875 C-846.83441406 1328.12789062 -846.85632813 1327.06828125 -846.87890625 1325.9765625 C-847.19223054 1307.72020041 -846.3578909 1289.65255876 -844.99609375 1271.45947266 C-844.56934554 1263.85404771 -844.584291 1258.91484975 -849.7578125 1252.94140625 C-850.83675781 1251.85666016 -850.83675781 1251.85666016 -851.9375 1250.75 C-873.70358304 1227.14652034 -882.02011146 1192.52548128 -882 1161.3125 C-882.00064453 1160.26835938 -882.00128906 1159.22421875 -882.00195312 1158.1484375 C-881.95069002 1150.65470359 -881.41808793 1143.52733052 -879.8125 1136.1875 C-880.4108667 1136.16768066 -881.0092334 1136.14786133 -881.62573242 1136.12744141 C-892.80996244 1135.73863018 -903.80199676 1135.32727705 -914.8125 1133.1875 C-916.85953384 1127.73178928 -917.83052459 1122.2192396 -918.8125 1116.5 C-918.9775 1115.58927734 -919.1425 1114.67855469 -919.3125 1113.74023438 C-922.29926014 1096.55469654 -923.18909173 1079.54548313 -923.125 1062.125 C-923.12317719 1061.0935788 -923.12135437 1060.06215759 -923.11947632 1058.9994812 C-923.07259599 1043.21730233 -922.58262619 1027.763432 -919.8125 1012.1875 C-919.63557617 1011.18364258 -919.45865234 1010.17978516 -919.27636719 1009.14550781 C-916.6866553 994.91774701 -913.15092765 980.97893595 -908.8125 967.1875 C-908.55774902 966.37394043 -908.30299805 965.56038086 -908.04052734 964.72216797 C-904.06521215 952.24291832 -898.87017424 940.49469577 -893.3359375 928.63671875 C-868.94992188 876.28271232 -876.95207055 809.26721901 -890.5769043 754.75390625 C-890.86734619 753.58472656 -891.15778809 752.41554688 -891.45703125 751.2109375 C-891.84918823 749.67832275 -891.84918823 749.67832275 -892.24926758 748.11474609 C-892.8125 745.1875 -892.8125 745.1875 -892.8125 739.1875 C-955.5125 739.1875 -1018.2125 739.1875 -1082.8125 739.1875 C-1081.72671065 734.8443426 -1081.06100217 734.12110083 -1077.8125 731.3125 C-1077.090625 730.67570312 -1076.36875 730.03890625 -1075.625 729.3828125 C-1073.30421205 727.57130857 -1070.98412824 725.94956989 -1068.52734375 724.3359375 C-1063.96209175 721.33235816 -1059.66226939 718.07210994 -1055.375 714.6875 C-1053.79038033 713.44659448 -1052.20574446 712.20570964 -1050.62109375 710.96484375 C-1049.01821897 709.70574215 -1047.41535423 708.44662776 -1045.8125 707.1875 C-1035.72087886 699.27879496 -1025.5643144 691.47342126 -1015.28930664 683.80419922 C-1007.37012009 677.88231941 -999.57064881 671.81285474 -991.78027344 665.72314453 C-980.79380608 657.14933812 -969.67698358 648.74259959 -958.58837891 640.30175781 C-955.84283531 638.21060499 -953.09889002 636.11737364 -950.35546875 634.0234375 C-942.46830958 628.00517502 -934.57606575 621.9961609 -926.625 616.0625 C-920.96676197 611.83871456 -915.37672917 607.53429523 -909.8125 603.1875 C-903.61070961 598.34263972 -897.36473607 593.5672787 -891.0559082 588.86279297 C-885.50566809 584.72033574 -880.00122081 580.51975827 -874.5 576.3125 C-866.86847515 570.48026646 -859.17350465 564.74364726 -851.42797852 559.06396484 C-843.58389386 553.30417738 -835.85897465 547.39964718 -828.234375 541.3515625 C-827.64124512 540.88524414 -827.04811523 540.41892578 -826.43701172 539.93847656 C-825.298358 539.04293478 -824.16429087 538.14152003 -823.03564453 537.23339844 C-819.1502188 534.1875 -819.1502188 534.1875 -815.8125 534.1875 C-815.90434539 533.6368047 -815.99619078 533.08610939 -816.09081936 532.51872635 C-818.33324402 519.07131934 -820.57020922 505.6230138 -822.80141354 492.17374039 C-823.88060305 485.66959859 -824.96155888 479.16576089 -826.04663086 472.66259766 C-827.09476852 466.38038469 -828.13816246 460.09740025 -829.17834663 453.81386566 C-829.57494718 451.42316683 -829.97322273 449.03274522 -830.37324333 446.64261627 C-830.93554925 443.28102961 -831.49175546 439.91848411 -832.04663086 436.55566406 C-832.21134888 435.57957687 -832.37606689 434.60348969 -832.54577637 433.5978241 C-833.35981066 428.62486873 -834.03777554 423.65028806 -834.55523682 418.63729858 C-834.65668629 417.65588583 -834.75813576 416.67447308 -834.86265945 415.66332054 C-834.8125 413.1875 -834.8125 413.1875 -832.69458008 410.62255859 C-831.26795044 409.91220459 -831.26795044 409.91220459 -829.8125 409.1875 C-828.99354248 408.68686035 -828.17458496 408.1862207 -827.33081055 407.67041016 C-826.46238525 407.19394043 -825.59395996 406.7174707 -824.69921875 406.2265625 C-823.71139404 405.68016113 -822.72356934 405.13375977 -821.70581055 404.57080078 C-820.64789307 403.99056152 -819.58997559 403.41032227 -818.5 402.8125 C-809.94342938 398.07189037 -801.43587472 393.2648088 -793 388.3125 C-784.34396824 383.23580992 -775.65519096 378.21989718 -766.9375 373.25 C-750.48955063 363.86990195 -734.0681992 354.44435592 -717.73144531 344.87158203 C-707.60527704 338.93949819 -697.41464343 333.14187751 -687.16113281 327.43286133 C-679.05962225 322.91180543 -671.0375342 318.26585188 -663.03417969 313.57373047 C-655.40451024 309.10471168 -647.74265345 304.69401115 -640.0625 300.3125 C-639.18702011 299.81295303 -639.18702011 299.81295303 -638.29385376 299.30331421 C-635.32490496 297.60950953 -632.35547977 295.91654238 -629.38574219 294.22412109 C-623.48448311 290.86097949 -617.5855765 287.49371933 -611.6875 284.125 C-611.10713989 283.79356995 -610.52677979 283.46213989 -609.92883301 283.1206665 C-600.47050527 277.7182091 -591.03221616 272.28154459 -581.60107422 266.83178711 C-573.0981394 261.92139695 -564.57557756 257.04595318 -556.04702759 252.18026733 C-547.51627996 247.31279173 -539.00253266 242.41663776 -530.5 237.5 C-521.5280675 232.31310152 -512.52488475 227.18583537 -503.49487305 222.10083008 C-496.24023841 218.00960798 -489.02173344 213.85813091 -481.8125 209.6875 C-473.67004117 204.97698663 -465.5090522 200.30325493 -457.3125 195.6875 C-445.86166779 189.23668957 -434.47858088 182.67108797 -423.10205078 176.09033203 C-417.71531106 172.97438655 -412.32689215 169.86135531 -406.9375 166.75 C-405.87184814 166.13471436 -404.80619629 165.51942871 -403.70825195 164.88549805 C-395.12548972 159.93462245 -386.52226444 155.0201807 -377.91381836 150.11416626 C-369.72188871 145.44431936 -361.56827609 140.71302263 -353.4375 135.9375 C-345.08056796 131.03341975 -336.63755676 126.32779157 -328.10888672 121.72998047 C-320.1341252 117.41097455 -312.31016698 112.85311342 -304.4921875 108.2578125 C-298.63984286 104.82241019 -292.76040496 101.45447775 -286.8125 98.1875 C-279.89064155 94.38334787 -273.06188618 90.43501892 -266.25 86.4375 C-258.06923422 81.63959142 -249.84662408 76.92967609 -241.5625 72.3125 C-232.41177577 67.21108874 -223.28546704 62.0697795 -214.1875 56.875 C-213.5877536 56.53268341 -212.9880072 56.19036682 -212.37008667 55.837677 C-205.74150102 52.05102515 -199.14332313 48.22399626 -192.625 44.25 C-135.70578687 9.915704 -65.57558466 -0.10086827 0 0 Z M-92.8125 58.5625 C-94.02901749 58.71094864 -94.02901749 58.71094864 -95.27011108 58.86239624 C-107.63848927 60.39026305 -118.96344186 62.73139528 -130 68.8125 C-130.93815552 69.32562744 -130.93815552 69.32562744 -131.89526367 69.84912109 C-137.23935149 72.7987241 -142.47408224 75.93210766 -147.71508789 79.05981445 C-154.19117072 82.8917779 -160.80126958 86.45432355 -167.4375 90 C-175.72240249 94.42706539 -183.96093376 98.91613714 -192.125 103.5625 C-200.73499412 108.46201453 -209.38419728 113.28542765 -218.0625 118.0625 C-219.29484936 118.74111347 -220.52718984 119.41974304 -221.75952148 120.09838867 C-222.67558418 120.60285271 -222.67558418 120.60285271 -223.6101532 121.11750793 C-224.22091202 121.4538475 -224.83167084 121.79018707 -225.4609375 122.13671875 C-226.07213943 122.47325974 -226.68334137 122.80980072 -227.31306458 123.15653992 C-233.77793308 126.71724845 -240.23460382 130.29263399 -246.6875 133.875 C-247.80278076 134.49415283 -248.91806152 135.11330566 -250.06713867 135.7512207 C-257.19154107 139.71305545 -264.28837751 143.72108528 -271.375 147.75 C-280.55097993 152.96387898 -289.82298217 157.98235817 -299.12792969 162.96166992 C-307.12621866 167.25223322 -315.04233895 171.67094609 -322.93115234 176.15893555 C-330.5677124 180.49839353 -338.24387341 184.76291733 -345.9375 189 C-346.54532318 189.33480377 -347.15314636 189.66960754 -347.77938843 190.01455688 C-350.87984146 191.72207131 -353.98078953 193.42868412 -357.08203125 195.13476562 C-392.94067513 214.84865159 -392.94067513 214.84865159 -428.625 234.875 C-436.79760104 239.51090759 -445.01672014 244.05142017 -453.27392578 248.53466797 C-464.0130806 254.37046333 -474.68701923 260.32309004 -485.36572266 266.26855469 C-500.94269397 274.94081666 -516.53114212 283.59175609 -532.1449585 292.19747925 C-541.98986257 297.62397357 -551.82030824 303.07602208 -561.64404297 308.54077148 C-570.51042828 313.47049206 -579.39269912 318.37092959 -588.27926636 323.26412964 C-596.6682532 327.88432722 -605.03004703 332.55064192 -613.375 337.25 C-622.1690353 342.1987561 -631.03080964 347.0083491 -639.9375 351.75 C-650.37395156 357.30651002 -660.70107014 363.02710808 -670.9765625 368.875 C-686.88231659 377.92360677 -702.9215395 386.73127665 -719.03051758 395.41186523 C-726.8306912 399.62707466 -734.55228225 403.9715509 -742.2590332 408.35473633 C-752.3720538 414.09664474 -762.58469988 419.65328973 -772.8125 425.1875 C-772.54740148 430.32470032 -772.28080672 435.46182025 -772.01293945 440.59887695 C-771.92237818 442.3394165 -771.83219661 444.07997585 -771.74243164 445.82055664 C-771.18537014 456.61634637 -770.57059453 467.40378386 -769.8125 478.1875 C-766.45712865 477.11465599 -763.26150152 476.04361416 -760.16015625 474.3671875 C-759.14344849 473.82408936 -759.14344849 473.82408936 -758.10620117 473.27001953 C-757.36990479 472.87153809 -756.6336084 472.47305664 -755.875 472.0625 C-749.75475012 468.79287018 -743.6184417 465.55914808 -737.4453125 462.390625 C-736.80183365 462.06030777 -736.1583548 461.72999054 -735.49537659 461.3896637 C-734.16984055 460.70937188 -732.84428387 460.02912027 -731.51870728 459.34890747 C-720.96792208 453.93211786 -710.48238313 448.42780489 -700.09838867 442.69580078 C-691.9517528 438.21790355 -683.69325168 433.96621645 -675.42565918 429.71795654 C-667.53911281 425.66303539 -659.70163622 421.53608425 -651.9375 417.25 C-642.48263643 412.03205273 -632.90300299 407.07910914 -623.29434204 402.15280151 C-613.93864822 397.35373739 -604.67045871 392.42643903 -595.46484375 387.34375 C-588.83781661 383.70187022 -582.11158439 380.30534427 -575.32910156 376.96411133 C-569.25958144 373.95613907 -563.30602295 370.77171226 -557.375 367.5 C-548.96422275 362.86305894 -540.47891284 358.39127806 -531.9375 354 C-521.023024 348.38596228 -510.15224471 342.69457723 -499.3125 336.9375 C-498.27056488 336.38505112 -498.27056488 336.38505112 -497.20758057 335.82144165 C-495.23128355 334.77318256 -493.25606389 333.722925 -491.28125 332.671875 C-490.15138672 332.07084961 -489.02152344 331.46982422 -487.85742188 330.85058594 C-485.9138248 329.78902538 -483.99543142 328.67897687 -482.11523438 327.50878906 C-478.68262666 325.53918845 -476.71543548 325.52598551 -472.8125 326.1875 C-470.98364258 327.51611328 -470.98364258 327.51611328 -469.08203125 329.2578125 C-468.38182861 329.89412598 -467.68162598 330.53043945 -466.96020508 331.18603516 C-466.2514624 331.84651855 -465.54271973 332.50700195 -464.8125 333.1875 C-464.15854248 333.79255371 -463.50458496 334.39760742 -462.83081055 335.02099609 C-460.81493971 336.8997243 -458.81230175 338.79168227 -456.8125 340.6875 C-455.31524037 342.10170671 -453.81784121 343.51576572 -452.3203125 344.9296875 C-451.56911133 345.63963867 -450.81791016 346.34958984 -450.04394531 347.08105469 C-446.59923045 350.33280522 -443.14412931 353.57342376 -439.6875 356.8125 C-438.70148804 357.73663696 -438.70148804 357.73663696 -437.69555664 358.67944336 C-432.60562209 363.44815931 -427.51023863 368.21102889 -422.40820312 372.96679688 C-419.17157145 375.9837632 -415.93961052 379.00550654 -412.71484375 382.03515625 C-412.04074463 382.66736084 -411.36664551 383.29956543 -410.67211914 383.95092773 C-409.38738219 385.15601068 -408.10393014 386.36246553 -406.82202148 387.57055664 C-401.48765169 393.40246893 -401.48765169 393.40246893 -394.8125 396.1875 C-394.72162109 396.77917969 -394.63074219 397.37085938 -394.53710938 397.98046875 C-393.6306056 400.74151799 -392.45914941 401.67545704 -390.21875 403.5 C-386.11394992 406.93283992 -382.20257619 410.51461107 -378.3125 414.1875 C-376.91804644 415.50008254 -375.52351275 416.81257996 -374.12890625 418.125 C-373.42008301 418.79273438 -372.71125977 419.46046875 -371.98095703 420.1484375 C-369.8131626 422.18687693 -367.63998851 424.21940755 -365.46484375 426.25 C-364.7584375 426.91 -364.05203125 427.57 -363.32421875 428.25 C-361.98513804 429.50081738 -360.64534526 430.75087309 -359.3046875 432 C-355.58239725 435.48139047 -351.95147463 439.03628637 -348.35961914 442.65185547 C-346.57137278 444.42683884 -344.72277148 446.1073312 -342.8125 447.75 C-341.81863281 448.60464844 -341.81863281 448.60464844 -340.8046875 449.4765625 C-340.14726563 450.04117187 -339.48984375 450.60578125 -338.8125 451.1875 C-338.15507813 451.77273438 -337.49765625 452.35796875 -336.8203125 452.9609375 C-335.88832031 453.78464844 -335.88832031 453.78464844 -334.9375 454.625 C-334.10605469 455.36556641 -334.10605469 455.36556641 -333.2578125 456.12109375 C-331.84363379 457.38540607 -331.84363379 457.38540607 -329.8125 457.1875 C-329.71195313 457.78820312 -329.61140625 458.38890625 -329.5078125 459.0078125 C-328.67368507 461.6226614 -327.81428993 462.35922668 -325.6875 464.0625 C-321.40858807 467.63728718 -317.32075575 471.37989204 -313.25 475.1875 C-312.62528809 475.76870605 -312.00057617 476.34991211 -311.35693359 476.94873047 C-307.5540204 480.50217415 -303.87008961 484.13546883 -300.27758789 487.90234375 C-298.8867252 489.40731178 -298.8867252 489.40731178 -296.8125 489.1875 C-296.4825 490.1775 -296.1525 491.1675 -295.8125 492.1875 C-294.12347201 493.93763338 -294.12347201 493.93763338 -292.0625 495.625 C-291.34320312 496.2334375 -290.62390625 496.841875 -289.8828125 497.46875 C-288.85800781 498.31953125 -288.85800781 498.31953125 -287.8125 499.1875 C-286.86375 499.991875 -285.915 500.79625 -284.9375 501.625 C-282.98355274 503.38496348 -282.98355274 503.38496348 -280.8125 503.1875 C-280.67509399 504.07598633 -280.67509399 504.07598633 -280.53491211 504.98242188 C-279.63401337 507.73230947 -278.48545363 508.65269822 -276.25390625 510.46875 C-271.94568033 514.07126028 -267.83957288 517.83989021 -263.75 521.6875 C-263.08162109 522.31269531 -262.41324219 522.93789063 -261.72460938 523.58203125 C-258.45266912 526.65364863 -255.22458764 529.75659097 -252.0625 532.94140625 C-249.74435336 535.27563062 -247.392643 537.50400972 -244.875 539.625 C-241.1930183 542.78303499 -237.8210956 546.17250023 -234.4765625 549.68359375 C-232.93902316 551.41100093 -232.93902316 551.41100093 -230.8125 551.1875 C-230.4825 552.1775 -230.1525 553.1675 -229.8125 554.1875 C-228.24225053 555.80091573 -228.24225053 555.80091573 -226.28515625 557.375 C-221.80498951 561.17720079 -217.52060991 565.15264322 -213.25 569.1875 C-212.53392578 569.86039063 -211.81785156 570.53328125 -211.08007812 571.2265625 C-207.68352525 574.42840852 -204.32404818 577.65619698 -201.03515625 580.96875 C-198.70587037 583.31432459 -196.33933492 585.55276015 -193.8125 587.6875 C-183.27140411 596.81078767 -183.27140411 596.81078767 -181.8125 601.1875 C-182.41047394 601.22343262 -183.00844788 601.25936523 -183.62454224 601.29638672 C-190.25863734 601.81174982 -196.17712891 603.26777265 -202.4921875 605.3125 C-203.46737335 605.61945801 -204.4425592 605.92641602 -205.44729614 606.24267578 C-208.53034185 607.21516001 -211.60894727 608.20089577 -214.6875 609.1875 C-217.78837126 610.17107865 -220.8900877 611.15195163 -223.99197388 612.13232422 C-225.9137305 612.74081494 -227.83472451 613.35172079 -229.75485229 613.96533203 C-230.62320709 614.24231934 -231.49156189 614.51930664 -232.38623047 614.8046875 C-233.14660614 615.04815918 -233.90698181 615.29163086 -234.69039917 615.54248047 C-245.05263927 618.69211745 -252.12755162 616.7500352 -261.9375 612.4375 C-263.18228842 611.90479987 -264.42775955 611.37369287 -265.67382812 610.84399414 C-268.48067875 609.64762416 -271.28307488 608.44147315 -274.08300781 607.22900391 C-279.24085938 604.99804032 -284.41280814 602.80072639 -289.5859375 600.60546875 C-296.5596352 597.64493987 -303.53147185 594.68014362 -310.50028992 591.70814514 C-322.03410374 586.78962524 -333.57985569 581.90014407 -345.13424683 577.03018188 C-369.42261307 566.79303942 -393.67189334 556.46492829 -417.91748047 546.12695312 C-428.09286246 541.78859107 -438.27019224 537.45480273 -448.4473877 533.12069702 C-451.81625265 531.68590175 -455.18499995 530.25083057 -458.55371094 528.81567383 C-468.70580871 524.49077492 -478.85842865 520.16712282 -489.01370239 515.84968567 C-494.67614639 513.44226754 -500.33808522 511.03366242 -506 508.625 C-507.65195374 507.92248611 -507.65195374 507.92248611 -509.33728027 507.20578003 C-522.06526529 501.79160399 -534.77973942 496.34741301 -547.47265625 490.8515625 C-548.66332199 490.33632523 -549.85398773 489.82108795 -551.08073425 489.29023743 C-556.80635285 486.81191194 -562.53003839 484.32927136 -568.25073242 481.83959961 C-570.28689982 480.95676055 -572.32311148 480.07402358 -574.359375 479.19140625 C-575.75984825 478.57919724 -575.75984825 478.57919724 -577.18861389 477.95462036 C-578.03741623 477.58746918 -578.88621857 477.22031799 -579.76074219 476.84204102 C-580.49943542 476.52058609 -581.23812866 476.19913116 -581.99920654 475.86793518 C-583.80179152 475.07039093 -583.80179152 475.07039093 -585.8125 475.1875 C-585.8125 512.1475 -585.8125 549.1075 -585.8125 587.1875 C-588.75900678 584.24099322 -590.10286697 582.00146207 -591.96484375 578.32421875 C-592.26077423 577.74474991 -592.55670471 577.16528107 -592.86160278 576.56825256 C-593.49751208 575.32229969 -594.13097925 574.07509796 -594.76223755 572.82678223 C-596.43993912 569.51170571 -598.13854496 566.20736955 -599.8359375 562.90234375 C-600.17607376 562.23921173 -600.51621002 561.57607971 -600.86665344 560.89285278 C-608.4329262 546.17017406 -616.57808958 531.7541449 -624.72045898 517.34472656 C-627.49698059 512.41127301 -630.21427707 507.46408795 -632.78125 502.41796875 C-633.2335498 501.53133545 -633.68584961 500.64470215 -634.15185547 499.73120117 C-634.98635872 498.08010178 -635.80904862 496.42295839 -636.61767578 494.7590332 C-638.40117758 490.78285128 -638.40117758 490.78285128 -641.81201172 488.41772461 C-644.72010963 488.08304846 -645.89902438 489.12403834 -648.3125 490.75 C-649.27929688 491.39710938 -650.24609375 492.04421875 -651.2421875 492.7109375 C-652.4336393 493.53451213 -653.62359716 494.36024997 -654.8125 495.1875 C-655.53598633 495.68797852 -656.25947266 496.18845703 -657.00488281 496.70410156 C-662.96386254 500.83256103 -668.89145711 505.00488269 -674.8125 509.1875 C-676.26821743 510.21486038 -677.72394591 511.2422051 -679.1796875 512.26953125 C-681.24601273 513.72818511 -683.31207783 515.18720156 -685.37744141 516.6472168 C-690.84439329 520.51033374 -696.3265267 524.35145529 -701.8125 528.1875 C-710.13655468 534.00868432 -718.44168378 539.85604221 -726.73583984 545.71972656 C-730.26017516 548.21070986 -733.78644701 550.69894903 -737.3125 553.1875 C-738.72917568 554.18748722 -740.14584236 555.18748722 -741.5625 556.1875 C-767.0625 574.1875 -767.0625 574.1875 -769.18725586 575.68725586 C-770.60482654 576.68794188 -772.02230692 577.68875583 -773.43969727 578.68969727 C-776.96680572 581.18025451 -780.49542217 583.66861592 -784.02734375 586.15234375 C-791.19962076 591.19968625 -798.34090238 596.28422495 -805.4375 601.4375 C-814.29337032 607.86272898 -823.27557928 614.10050608 -832.265625 620.3359375 C-842.73316362 627.59729985 -853.12756607 634.95417118 -863.4375 642.4375 C-871.30718915 648.14905066 -879.28038775 653.70350668 -887.27490234 659.23852539 C-893.9893763 663.89566303 -900.6283078 668.64487304 -907.23291016 673.45605469 C-912.64954053 677.38631772 -918.15014754 681.17967839 -923.6875 684.9375 C-934.48483947 692.24205495 -934.48483947 692.24205495 -944.8125 700.1875 C-944.8125 700.5175 -944.8125 700.8475 -944.8125 701.1875 C-895.15833804 701.3414085 -845.50771362 701.12673885 -795.85499811 700.76661587 C-793.5548358 700.74994445 -791.25467282 700.7333681 -788.95450974 700.7168045 C-758.35588772 700.49599211 -727.75739538 700.26894786 -697.16015625 699.8984375 C-695.71298029 699.88093697 -695.71298029 699.88093697 -694.23656845 699.86308289 C-690.44748529 699.81714255 -686.65840491 699.77097655 -682.86932564 699.72471619 C-645.60621875 699.27092527 -608.34419805 699.05321085 -571.07849663 699.00884479 C-566.48644876 699.0030011 -561.89443158 698.99215294 -557.30239868 698.97921753 C-533.0104828 698.91489397 -508.7449104 698.90608458 -484.4765625 700.08984375 C-483.65256203 700.12985819 -482.82856155 700.16987263 -481.97959137 700.21109962 C-421.40989038 703.25183395 -361.20458969 713.57027674 -305.61987305 738.58422852 C-290.66063246 745.3006832 -275.64242124 751.44000194 -260.03125 756.4765625 C-259.3516925 756.69582586 -258.67213501 756.91508923 -257.97198486 757.14099693 C-252.38027935 758.94029469 -246.78127115 760.71644536 -241.18017578 762.48626709 C-202.22807036 774.79742161 -202.22807036 774.79742161 -187.5 785.8125 C-186.80962646 786.31338135 -186.11925293 786.8142627 -185.40795898 787.33032227 C-183.200203 788.93715351 -181.00579796 790.56100399 -178.8125 792.1875 C-177.25824959 793.33002192 -175.70355377 794.47193814 -174.1484375 795.61328125 C-170.9499821 797.96409178 -167.75686631 800.32194669 -164.56640625 802.68359375 C-160.00657321 806.05301555 -155.41464121 809.37619713 -150.8125 812.6875 C-144.61586652 817.14758376 -138.45273805 821.65009762 -132.3125 826.1875 C-123.19501634 832.92303059 -114.01309231 839.56613637 -104.8125 846.1875 C-94.80699602 853.38813208 -84.83561522 860.63000786 -74.92041016 867.95458984 C-66.59747251 874.09669634 -58.20817785 880.14540683 -49.8125 886.1875 C-39.8061743 893.38872344 -29.83310494 900.63005899 -19.91821289 907.95678711 C-14.57414384 911.90157041 -9.20348455 915.80712408 -3.8125 919.6875 C3.18965242 924.72757819 10.14363256 929.82963385 17.08203125 934.95703125 C22.42607905 938.90165573 27.79672967 942.80701884 33.1875 946.6875 C44.77822763 955.03541712 56.29288816 963.48721957 67.70117188 972.08300781 C70.28721689 974.029321 72.88169955 975.96422589 75.47607422 977.89941406 C77.05995673 979.09150595 78.62651329 980.30652464 80.19140625 981.5234375 C81.05636719 982.17570312 81.92132812 982.82796875 82.8125 983.5 C83.88371094 984.32951172 83.88371094 984.32951172 84.9765625 985.17578125 C88.23752933 986.66799045 89.74116198 986.23147842 93.1875 985.1875 C96.57512354 983.54282347 99.77969568 981.63631354 103 979.6875 C103.95197266 979.11797607 104.90394531 978.54845215 105.88476562 977.96166992 C117.63102893 970.83940206 128.92621942 963.0462534 140.1875 955.1875 C140.909375 954.68589355 141.63125 954.18428711 142.375 953.66748047 C156.87775143 943.56681932 170.84399654 932.77429572 184.1875 921.1875 C184.92226562 920.55328125 185.65703125 919.9190625 186.4140625 919.265625 C190.91812298 915.35373184 195.34239534 911.3539561 199.76953125 907.35546875 C201.7865169 905.54702443 203.82241596 903.7676266 205.875 902 C215.46614408 893.61976188 224.66590391 884.79918606 233.6875 875.8125 C234.33332031 875.17127197 234.97914062 874.53004395 235.64453125 873.86938477 C239.45135503 870.05024595 243.06459886 866.11219028 246.58886719 862.03125 C248.69725088 859.59958939 250.87870346 857.23894137 253.0625 854.875 C257.17725925 850.36243925 261.09114644 845.73148781 264.921875 840.9765625 C267.21600116 838.15241409 269.57468005 835.39178595 271.9375 832.625 C329.45836907 763.54661474 359.92678418 673.45086615 399.30432129 531.42440796 C400.35014022 527.35715758 401.42775182 523.30333067 402.56982422 519.26196289 C405.31081502 509.47100838 407.08657634 500.32230475 407.5625 490.125 C407.59764709 489.47040802 407.63279419 488.81581604 407.66900635 488.14138794 C409.49081043 454.12841812 404.84635083 421.0600235 396.1875 388.1875 C395.92630371 387.19266602 395.66510742 386.19783203 395.39599609 385.17285156 C378.59253812 322.73530805 343.91069714 255.34728244 301.33227539 206.59423828 C300.1875 205.1875 300.1875 205.1875 299.1875 203.1875 C298.1975 203.1875 297.2075 203.1875 296.1875 203.1875 C295.87039063 202.13175781 295.87039063 202.13175781 295.546875 201.0546875 C293.82525734 197.42345944 291.31365593 195.0314342 288.4375 192.3125 C287.34182529 191.2506804 286.24805317 190.18689382 285.15625 189.12109375 C284.37701172 188.36094971 284.37701172 188.36094971 283.58203125 187.58544922 C281.92885316 185.92821922 280.41740985 184.18788956 278.9375 182.375 C276.40437549 179.32357047 273.58737032 176.81627995 270.56640625 174.25390625 C268.222325 172.21775029 265.95953968 170.10836501 263.70117188 167.97802734 C257.15553279 161.82442445 250.35841884 156.15652632 243.20703125 150.72265625 C241.78725251 149.64340471 240.37088186 148.55966223 238.95703125 147.47265625 C167.95532854 92.90109962 84.42804889 59.97306553 -92.8125 58.5625 Z " fill="#006969" transform="translate(1119.8125,496.8125)"/>
<path d="M0 0 C0.96577972 0.00093658 1.93155945 0.00187317 2.92660522 0.00283813 C64.14411198 0.12991944 124.68941917 8.71018693 183.3125 26.5625 C184.40900879 26.89628662 185.50551758 27.23007324 186.63525391 27.57397461 C194.11545646 29.92795646 194.11545646 29.92795646 196.375 32.1875 C196.62223816 35.15557861 196.62223816 35.15557861 196.61791992 39.02832031 C196.61979561 39.73587526 196.6216713 40.44343021 196.62360382 41.17242622 C196.6272776 43.53693337 196.61648163 45.90114399 196.60546875 48.265625 C196.60461237 49.93217955 196.60453022 51.59873466 196.60517883 53.26528931 C196.60402489 57.73246593 196.5896743 62.19950963 196.57223511 66.66664886 C196.5625276 69.42964401 196.55667836 72.19261912 196.55224609 74.95562744 C196.51114229 100.46343664 196.26049179 125.95367873 195.52851868 151.45202637 C195.307213 159.69677852 195.33060174 167.94052286 195.375 176.1875 C202.63585388 161.3593771 209.76644382 146.48479494 216.5625 131.4375 C222.04682623 119.2974702 227.58189394 107.18245982 233.17886353 95.09387207 C234.00672217 93.30555448 234.8338705 91.51690787 235.6602478 89.72790527 C240.09015971 80.13959448 244.56196113 70.59111152 249.375 61.1875 C254.8932425 61.0153881 259.39731349 61.46666625 264.765625 62.953125 C265.45493103 63.14209351 266.14423706 63.33106201 266.85443115 63.52575684 C269.11495037 64.15065469 271.37011497 64.79258676 273.625 65.4375 C274.41132812 65.6595813 275.19765625 65.8816626 276.0078125 66.11047363 C316.33280544 77.51873505 355.67886496 91.8399764 393.375 110.1875 C394.41011719 110.68459473 395.44523437 111.18168945 396.51171875 111.69384766 C410.94295466 118.6328212 424.83353263 126.28667249 438.56884766 134.51318359 C441.18579555 136.07460944 443.81445664 137.61341581 446.44921875 139.14453125 C478.46160373 157.86025098 507.96402813 180.44726613 536.375 204.1875 C537.47183105 205.09943115 537.47183105 205.09943115 538.59082031 206.02978516 C540.71503639 207.80153801 542.82790168 209.58588227 544.9375 211.375 C545.58710693 211.91560059 546.23671387 212.45620117 546.90600586 213.01318359 C548.45393745 214.33949829 549.92308293 215.75671709 551.375 217.1875 C551.375 218.1775 551.375 219.1675 551.375 220.1875 C552.179375 220.26871094 552.179375 220.26871094 553 220.3515625 C556.49159194 221.58051098 558.76117551 224.03835028 561.375 226.5625 C562.54119718 227.66716251 563.70787405 228.77131881 564.875 229.875 C565.75478516 230.71224609 565.75478516 230.71224609 566.65234375 231.56640625 C568.22712885 233.04834687 569.8225291 234.49962774 571.4375 235.9375 C581.25303831 244.70883211 590.12087516 254.31202512 598.7109375 264.27734375 C600.69040126 266.54954511 602.7208317 268.77209872 604.75 271 C608.59718168 275.26169284 612.23622904 279.65615143 615.84375 284.12109375 C619.39638568 288.42482678 623.07304044 292.61793325 626.77050781 296.79760742 C635.85706005 307.15890185 635.85706005 307.15890185 637.125 312.125 C635.94760935 316.93267849 632.80621191 319.74285869 629.375 323.1875 C628.78847656 323.77660156 628.20195313 324.36570312 627.59765625 324.97265625 C626.44072406 326.12434159 625.28051186 327.27274054 624.1171875 328.41796875 C621.72288376 330.84985125 619.50390051 333.41497265 617.27734375 336 C614.33824028 339.37966723 611.31111562 342.67922866 608.29296875 345.98828125 C606.24980508 348.23572519 606.24980508 348.23572519 604.375 351.1875 C603.385 351.1875 602.395 351.1875 601.375 351.1875 C601.28863281 351.75597656 601.20226563 352.32445312 601.11328125 352.91015625 C600.15983721 355.8512032 598.67439312 357.36850879 596.5625 359.625 C595.35013672 360.93404297 595.35013672 360.93404297 594.11328125 362.26953125 C593.45320068 362.97263428 593.45320068 362.97263428 592.77978516 363.68994141 C590.25389133 366.38264783 587.75450042 369.09991285 585.25 371.8125 C584.73284424 372.37106689 584.21568848 372.92963379 583.68286133 373.50512695 C580.44425024 377.00788191 577.26948125 380.55583143 574.1484375 384.1640625 C571.92361908 386.70251171 569.64996681 389.19391776 567.375 391.6875 C562.31510529 397.23879572 557.2662065 402.7792579 552.625 408.6875 C551.8825 409.5125 551.14 410.3375 550.375 411.1875 C549.385 411.1875 548.395 411.1875 547.375 411.1875 C547.22224609 412.06148438 547.22224609 412.06148438 547.06640625 412.953125 C546.25324803 415.58095836 545.15542174 416.90566829 543.3125 418.9375 C542.68988281 419.62585938 542.06726562 420.31421875 541.42578125 421.0234375 C538.67552399 423.92561373 535.84765015 426.74103209 532.9765625 429.5234375 C531.28871276 431.11172733 531.28871276 431.11172733 530.375 433.1875 C529.385 433.1875 528.395 433.1875 527.375 433.1875 C527.045 434.8375 526.715 436.4875 526.375 438.1875 C527.03006877 437.85673934 527.68513754 437.52597868 528.36005688 437.18519497 C544.2930915 429.14141317 560.23383442 421.11310763 576.18332195 413.10199642 C583.89616367 409.22752149 591.60629986 405.34783508 599.31030273 401.45581055 C606.02440613 398.06389501 612.74335847 394.6818219 619.46833926 391.31152064 C623.02966231 389.52629267 626.58834784 387.73620317 630.14127159 385.93430901 C633.484882 384.23876406 636.83481523 382.55644896 640.19007683 380.8840847 C641.42083096 380.26774403 642.64918961 379.64659305 643.87491989 379.02032089 C645.548202 378.16627759 647.23107356 377.3311004 648.91435242 376.49693298 C650.32331299 375.78761328 650.32331299 375.78761328 651.76073742 375.06396389 C654.78568358 374.04981325 656.36337626 374.2325169 659.375 375.1875 C665.1674553 379.25714072 669.30980254 385.83303014 673.51953125 391.421875 C675.52607575 394.08406517 677.56829475 396.71372413 679.63671875 399.328125 C688.32328559 410.32200348 696.47796706 421.61468571 704.375 433.1875 C704.83358398 433.8587793 705.29216797 434.53005859 705.76464844 435.22167969 C722.50352316 459.81680145 737.5036654 485.47379543 751.88867188 511.50097656 C753.11116778 513.71062586 754.34283605 515.91468855 755.578125 518.1171875 C773.83466559 551.33181807 787.89742067 587.46446375 800.375 623.1875 C800.83281955 624.48926678 801.29066497 625.79102447 801.74853516 627.09277344 C820.98666452 681.98569848 832.72305589 738.80692049 839.1875 796.5625 C839.33655289 797.88193604 839.33655289 797.88193604 839.48861694 799.22802734 C842.40467725 825.38249039 843.75794296 851.48668453 843.6922493 877.79280472 C843.68742024 879.97351912 843.6864074 882.15421105 843.68600464 884.33493042 C843.67026489 908.05026252 842.76724371 931.58295832 840.375 955.1875 C840.26913574 956.26241699 840.16327148 957.33733398 840.05419922 958.44482422 C839.8320265 960.69280459 839.60440255 962.94024591 839.375 965.1875 C831.3653078 968.73167178 823.17176227 970.94712845 814.6875 973.04296875 C813.29393856 973.39290576 811.90054945 973.74352966 810.50732422 974.09480286 C806.87320075 975.00946654 803.23715952 975.91624081 799.6005249 976.82086182 C793.75259791 978.27694961 787.9076674 979.74501157 782.06283569 981.21346474 C780.02599188 981.72395446 777.98829576 982.2309197 775.95043945 982.73735046 C774.72156006 983.0446962 773.49268066 983.35204193 772.2265625 983.66870117 C771.14197754 983.93865402 770.05739258 984.20860687 768.93994141 984.48674011 C766.41186969 985.08753251 766.41186969 985.08753251 764.375 986.1875 C790.115 990.4775 815.855 994.7675 842.375 999.1875 C842.375 1034.98610778 842.375 1034.98610778 840.75 1045.9375 C840.57251221 1047.23220215 840.39502441 1048.5269043 840.2121582 1049.86083984 C839.63953351 1053.97606431 839.01271342 1058.08192896 838.375 1062.1875 C838.26609436 1062.89708862 838.15718872 1063.60667725 838.04498291 1064.33776855 C828.19893984 1128.33615293 808.392084 1189.35698924 779.375 1247.1875 C778.82166992 1248.2914209 778.26833984 1249.3953418 777.69824219 1250.53271484 C768.08875614 1269.5946692 757.56897045 1287.93218337 745.8125 1305.75 C701.55430822 1372.89801953 684.47264826 1452.11169341 670.375 1530.1875 C670.17392639 1531.30108887 669.97285278 1532.41467773 669.76568604 1533.56201172 C668.41146609 1541.09772968 667.09940804 1548.64001957 665.8125 1556.1875 C665.56563446 1557.61461304 665.56563446 1557.61461304 665.31378174 1559.07055664 C650.76639383 1643.77255136 659.92452823 1733.69911607 706.06835938 1901.91308594 C706.3466156 1902.68949432 706.62487183 1903.46590271 706.91156006 1904.26583862 C707.44806421 1905.75824824 707.9887613 1907.2491592 708.53424072 1908.73831177 C709.5967968 1911.69250534 710.375 1914.02178148 710.375 1917.1875 C698.58750274 1913.40814646 689.39565925 1894.88495883 682.375 1885.1875 C681.8603418 1884.47819336 681.34568359 1883.76888672 680.81542969 1883.03808594 C668.49331178 1865.99858955 656.93583764 1848.37261583 646.375 1830.1875 C645.941875 1829.44983398 645.50875 1828.71216797 645.0625 1827.95214844 C636.93195415 1814.09069701 629.42123333 1799.94251805 622.12744141 1785.625 C620.97261636 1783.35975389 619.813535 1781.09667187 618.64990234 1778.8359375 C607.53640401 1757.24071594 597.92252909 1735.28275973 590.375 1712.1875 C590.09591797 1711.34558105 589.81683594 1710.50366211 589.52929688 1709.63623047 C565.97485199 1637.96686883 561.40825186 1560.57926034 558.1875 1485.75 C558.15057037 1484.90213928 558.11364075 1484.05427856 558.07559204 1483.1807251 C557.79282762 1476.51774636 557.57377621 1469.85347425 557.375 1463.1875 C557.34458933 1462.17607563 557.34458933 1462.17607563 557.3135643 1461.14421844 C556.4532594 1432.29006804 556.1297459 1403.44057963 556.07983398 1374.57421875 C556.07085034 1369.93997561 556.04962234 1365.30602031 556.01831055 1360.671875 C555.97963198 1354.9434733 555.96105286 1349.21532855 555.95655251 1343.48680115 C555.95175048 1341.34693295 555.94032516 1339.20706691 555.92151451 1337.067276 C555.72127979 1312.8872499 561.28399778 1292.43358924 571.5 1270.5 C606.25419766 1194.46687978 625.21933913 1110.17914915 626.5625 1015.25 C626.56189575 1014.45246307 626.5612915 1013.65492615 626.56066895 1012.83322144 C626.37831688 923.25944058 597.06952007 836.02025689 548.76806641 713.22216797 C548.11747314 711.66505572 547.46691866 710.10792728 546.81640625 708.55078125 C546.35252502 707.44098907 546.35252502 707.44098907 545.87927246 706.30877686 C544.19544637 702.25364471 542.61408854 698.18493055 541.15234375 694.04296875 C530.48339186 664.29144847 507.35851902 636.94038334 488 612.3125 C487.54657227 611.7352417 487.09314453 611.1579834 486.62597656 610.56323242 C484.18027484 607.45705354 481.71612918 604.36727772 479.23046875 601.29296875 C478.72112793 600.65794434 478.21178711 600.02291992 477.68701172 599.36865234 C476.7064084 598.1466501 475.71996885 596.9293025 474.72705078 595.71728516 C471.375 591.52507214 471.375 591.52507214 471.375 588.1875 C470.776875 588.084375 470.17875 587.98125 469.5625 587.875 C467.01494217 587.07433897 465.95975902 586.32692468 464.375 584.1875 C464.375 582.8675 464.375 581.5475 464.375 580.1875 C463.78654297 580.09178711 463.19808594 579.99607422 462.59179688 579.89746094 C459.88821352 579.03159966 458.81813885 577.91098704 456.90625 575.828125 C456.25906006 575.13114502 455.61187012 574.43416504 454.94506836 573.71606445 C454.2619458 572.96413818 453.57882324 572.21221191 452.875 571.4375 C452.16158447 570.66688232 451.44816895 569.89626465 450.71313477 569.10229492 C447.51431012 565.6417124 444.34357421 562.15619651 441.18359375 558.66015625 C434.19144575 550.94779706 426.81091177 543.79455119 419.11767578 536.78173828 C417.54544894 535.34343046 415.98679942 533.8923731 414.43359375 532.43359375 C408.56234629 526.97256446 402.43194782 522.02762734 396.02734375 517.21875 C393.375 515.1875 393.375 515.1875 391.375 513.1875 C391.375 512.1975 391.375 511.2075 391.375 510.1875 C390.55257812 509.98640625 389.73015625 509.7853125 388.8828125 509.578125 C384.3042113 507.76300025 381.04108181 505.03192824 377.25 501.9375 C360.41835431 488.54660615 342.48604807 476.7636661 324.375 465.1875 C323.49199219 464.62144043 322.60898438 464.05538086 321.69921875 463.47216797 C307.94882991 454.69263746 293.83028743 446.74526698 279.375 439.1875 C278.0444458 438.48826416 278.0444458 438.48826416 276.68701172 437.77490234 C202.03859962 398.77359811 116.55639038 374.12396459 32.375 369.1875 C31.6866507 369.14586731 30.99830139 369.10423462 30.28909302 369.06134033 C16.3448934 368.23849529 2.4316496 368.03102506 -11.53491211 368.05712891 C-14.92371119 368.06247823 -18.31237682 368.05715071 -21.70117188 368.05078125 C-33.60006585 368.04754829 -45.45613588 368.27638236 -57.34211731 368.83590698 C-65.11147538 369.19543529 -72.84809485 369.2996669 -80.625 369.1875 C-80.95540283 367.80304688 -80.95540283 367.80304688 -81.29248047 366.390625 C-90.47952535 328.06802253 -101.81959147 291.2992027 -118.54980469 255.49804688 C-119.62477237 253.18798916 -120.67701338 250.86857528 -121.7265625 248.546875 C-139.08614689 210.52472356 -163.78701172 172.09932538 -193.9140625 142.89453125 C-196.34410736 140.47003444 -198.45197596 137.84341827 -200.625 135.1875 C-201.388125 134.465625 -202.15125 133.74375 -202.9375 133 C-204.625 131.1875 -204.625 131.1875 -204.625 128.1875 C-205.285 128.1875 -205.945 128.1875 -206.625 128.1875 C-206.625 127.5275 -206.625 126.8675 -206.625 126.1875 C-207.16640625 126.13851562 -207.7078125 126.08953125 -208.265625 126.0390625 C-211.76172754 124.77722417 -213.875401 122.20400456 -216.375 119.5625 C-217.45394531 118.45399009 -218.53467032 117.34720956 -219.6171875 116.2421875 C-220.13764648 115.70948242 -220.65810547 115.17677734 -221.19433594 114.62792969 C-224.1773498 111.62455395 -227.39975612 108.92355345 -230.625 106.1875 C-232.07712891 104.90166016 -232.07712891 104.90166016 -233.55859375 103.58984375 C-243.12725356 95.15726702 -253.27297185 87.62603052 -263.625 80.1875 C-264.35509277 79.66220703 -265.08518555 79.13691406 -265.83740234 78.59570312 C-269.75686282 75.77912898 -273.68581634 72.97641633 -277.625 70.1875 C-273.30034963 59.67837552 -253.03427902 53.89410581 -243.19091797 49.73730469 C-167.08853492 18.29868312 -88.07203184 0.23046696 0 0 Z " fill="#006969" transform="translate(1128.625,22.8125)"/>
<path d="M0 0 C12.19447863 1.58590942 22.54233242 9.74331145 32.5 16.5 C33.82878959 17.39495509 35.15781265 18.28956364 36.48706055 19.18383789 C40.33342931 21.77648546 44.16882532 24.38496577 48 27 C49.00885254 27.68819824 50.01770508 28.37639648 51.05712891 29.08544922 C66.27040052 39.50649967 81.04398905 50.42253043 95.0234375 62.45703125 C97.80985982 64.8375574 100.64207177 67.14374492 103.5 69.4375 C108.32100245 73.35632656 112.88579769 77.50328052 117.41674805 81.74951172 C120.30892941 84.45799989 123.2347684 87.06300888 126.3125 89.5625 C127.199375 90.366875 128.08625 91.17125 129 92 C129 92.99 129 93.98 129 95 C129.5671875 95.08765625 130.134375 95.1753125 130.71875 95.265625 C140.64139024 98.4598996 150.83565407 112.73938633 157.2109375 120.79296875 C158.89856832 123.08457443 158.89856832 123.08457443 161.25 124.5625 C161.8275 125.036875 162.405 125.51125 163 126 C163 127.32 163 128.64 163 130 C163.55558594 130.05800781 164.11117188 130.11601563 164.68359375 130.17578125 C173.6084244 133.35139553 181.77691001 147.6040162 187.49169922 155.04589844 C189.09776209 157.12665713 190.72092928 159.19317416 192.34765625 161.2578125 C211.22452628 185.25343145 228.84642115 210.46602258 244 237 C244.36254883 237.62648438 244.72509766 238.25296875 245.09863281 238.8984375 C257.72465999 260.76795046 268.84323584 283.46696526 278 307 C278.40669922 308.04414062 278.81339844 309.08828125 279.23242188 310.1640625 C301.87624633 368.80485594 315.12743854 429.79702053 325.59576416 491.62908936 C325.96806051 493.81266959 326.34779779 495.99474536 326.73193359 498.17626953 C327.3385891 501.63569879 327.92407027 505.09784348 328.5 508.5625 C328.66024658 509.46226562 328.82049316 510.36203125 328.9855957 511.2890625 C330.49336144 520.79594986 330.12737013 530.4041938 330 540 C303.23629853 540.42190152 276.55920135 539.8303776 249.82334137 538.66626358 C247.43474475 538.56238017 245.04608253 538.46011535 242.65740967 538.35800171 C238.85860468 538.19465064 235.06009401 538.02562263 231.26176262 537.85161209 C229.84661883 537.78702115 228.4314233 537.72355303 227.01617622 537.66126633 C225.0658522 537.57464053 223.11580151 537.4819252 221.16577148 537.38891602 C220.06684067 537.33784195 218.96790985 537.28676788 217.8356781 537.23414612 C215.42647453 537.03521463 213.31113335 536.68088853 211 536 C210.98018066 534.89640137 210.96036133 533.79280273 210.93994141 532.65576172 C209.3901882 448.74059557 199.10868335 369.45577936 153 267 C152.56059082 266.13068848 152.12118164 265.26137695 151.66845703 264.36572266 C135.23064063 232.06893004 115.22339249 201.63642879 91.640625 174.109375 C89.26281619 171.32785189 86.97150549 168.4842365 84.6875 165.625 C79.3898416 159.12290061 73.63176876 153.07378094 67.86914062 146.98681641 C66.00759367 145.00807175 64.16546924 143.01293687 62.328125 141.01171875 C50.38231516 128.03909373 37.81111012 115.98142541 24 105 C22.7989534 104.0100259 21.59986891 103.01766843 20.40234375 102.0234375 C5.25564463 89.48627494 -10.8038121 78.32770049 -27.08740234 67.32763672 C-27.71855957 66.8895166 -28.3497168 66.45139648 -29 66 C-30.09513916 65.25762085 -30.09513916 65.25762085 -31.21240234 64.50024414 C-33 63 -33 63 -33.515625 60.31640625 C-32.82738474 55.88977003 -31.01332432 52.7591371 -28.75 48.9375 C-28.30543457 48.1630957 -27.86086914 47.38869141 -27.40283203 46.59082031 C-26.4453973 44.92516889 -25.48247541 43.2626619 -24.51464844 41.60302734 C-22.45510313 38.06355732 -20.43353466 34.50289609 -18.40893555 30.94335938 C-16.89108766 28.2782475 -15.36650767 25.61710118 -13.83984375 22.95703125 C-12.07246548 19.87640506 -10.31303883 16.79165319 -8.56640625 13.69921875 C-8.20240723 13.05629883 -7.8384082 12.41337891 -7.46337891 11.75097656 C-6.51427282 10.07321359 -5.5675768 8.39408787 -4.62109375 6.71484375 C-3.2040702 4.34175612 -1.7101153 2.16753215 0 0 Z " fill="#006969" transform="translate(1404,489)"/>
</svg>
