<?xml version="1.0" encoding="UTF-8"?>
<svg version="1.1" xmlns="http://www.w3.org/2000/svg" width="411" height="383">
<path d="M0 0 C10.40299697 9.0284268 10.40299697 9.0284268 12.9765625 14.7578125 C13.07421875 17.234375 13.07421875 17.234375 11.9765625 19.7578125 C9.53106815 21.41855866 7.37721607 22.65113446 4.7265625 23.8828125 C4.00001465 24.22828125 3.2734668 24.57375 2.52490234 24.9296875 C-12.87287835 32.00261065 -30.90496845 33.51440859 -47.0234375 27.7578125 C-54.95466669 24.70233896 -63.07561897 20.89104717 -69.01953125 14.66796875 C-75.82645055 7.55222891 -82.6098345 7.15839135 -92.0234375 6.7578125 C-93.6900128 6.74036145 -95.35697111 6.73197581 -97.0234375 6.7578125 C-96.29640625 7.7271875 -95.569375 8.6965625 -94.8203125 9.6953125 C-94.34078125 10.33484863 -93.86125 10.97438477 -93.3671875 11.63330078 C-92.28968514 13.06964048 -91.21154285 14.5055003 -90.1328125 15.94091797 C-87.39925683 19.58012214 -84.67435032 23.22480743 -81.9765625 26.890625 C-64.8526998 50.35411608 -64.8526998 50.35411608 -41.82421875 67.50390625 C-41.22996094 67.91769531 -40.63570313 68.33148438 -40.0234375 68.7578125 C-40.0234375 71.7578125 -40.0234375 71.7578125 -42.5234375 74.4453125 C-43.7609375 75.59 -43.7609375 75.59 -45.0234375 76.7578125 C-49.48923611 75.33169068 -52.44303975 72.87683843 -55.7734375 69.6953125 C-56.30001953 69.19926514 -56.82660156 68.70321777 -57.36914062 68.19213867 C-58.43367821 67.18532283 -59.49493266 66.17502331 -60.55273438 65.16113281 C-61.81499917 63.95670087 -63.09705516 62.77307048 -64.3828125 61.59375 C-79.2691682 47.52234078 -89.84391822 28.76979975 -101.0234375 11.7578125 C-100.75789063 13.04171875 -100.49234375 14.325625 -100.21875 15.6484375 C-97.25253212 30.3435519 -94.60008803 45.06210757 -95.29931641 60.10009766 C-95.73065844 67.01783717 -95.73065844 67.01783717 -93.4609375 73.421875 C-92.08609067 74.85400711 -90.66119385 76.23970363 -89.19140625 77.57421875 C-79.92597309 86.90642981 -77.76620183 102.54810913 -77.5859375 115.1328125 C-77.69519748 132.3634531 -83.75854083 150.55633553 -95.0234375 163.7578125 C-96.5084375 164.7478125 -96.5084375 164.7478125 -98.0234375 165.7578125 C-99.48209023 139.83569134 -100.81770308 114.40891898 -98.73535156 88.48364258 C-98.23307682 82.21459238 -97.91627061 76.04716964 -98.0234375 69.7578125 C-99.0134375 70.2528125 -99.0134375 70.2528125 -100.0234375 70.7578125 C-100.47375508 73.43349153 -100.7850123 76.01702168 -101.015625 78.71484375 C-101.09045609 79.54900314 -101.16528717 80.38316254 -101.24238586 81.24259949 C-101.47913058 84.0173786 -101.69230772 86.79309677 -101.8984375 89.5703125 C-102.00715683 90.99283325 -102.00715683 90.99283325 -102.11807251 92.4440918 C-103.55386809 112.24284803 -102.00847511 131.38314328 -99.71459961 151.05082703 C-99.04503444 156.96876538 -98.75440366 162.79978048 -99.0234375 168.7578125 C-112.25924538 156.34277523 -120.78338587 128.89430796 -121.4609375 111.3203125 C-121.11402951 99.32307787 -116.98303968 88.47526534 -110.0234375 78.7578125 C-108.72137009 77.60013778 -107.40935328 76.45352075 -106.0859375 75.3203125 C-101.66720857 70.4935478 -102.25663072 64.54600809 -102.40039062 58.35888672 C-103.3391772 39.13690108 -107.80181356 18.93055605 -115.10693359 1.11547852 C-116.13997943 -1.54198649 -116.32907242 -3.41506453 -116.0234375 -6.2421875 C-115.3634375 -6.9021875 -114.7034375 -7.5621875 -114.0234375 -8.2421875 C-109.45856636 -8.04371484 -105.57976307 -6.79791987 -101.2734375 -5.3046875 C-92.78461249 -2.39393079 -83.05772645 0.29223246 -74.0234375 -1.2421875 C-70.92066974 -3.20565612 -70.92066974 -3.20565612 -69.05078125 -4.8046875 C-48.35157398 -19.48158206 -19.1798387 -14.22380803 0 0 Z M-78.0234375 3.7578125 C-77.0334375 5.2428125 -77.0334375 5.2428125 -76.0234375 6.7578125 C-73.30838062 7.09322189 -73.30838062 7.09322189 -70.109375 6.875 C-68.27354858 6.82122192 -68.27354858 6.82122192 -66.40063477 6.76635742 C-65.74845978 6.74350677 -65.09628479 6.72065613 -64.42434692 6.69711304 C-50.75398052 6.26322794 -38.24280093 7.69334346 -24.95410156 11.03027344 C-19.81135309 12.30696375 -14.63559908 13.43154801 -9.4609375 14.5703125 C-8.51484619 14.78905029 -7.56875488 15.00778809 -6.59399414 15.2331543 C-1.60979624 16.35332539 2.86772402 17.00309281 7.9765625 16.7578125 C7.9765625 16.4278125 7.9765625 16.0978125 7.9765625 15.7578125 C7.23833252 15.57718262 6.50010254 15.39655273 5.73950195 15.21044922 C-20.991094 8.65056496 -20.991094 8.65056496 -34.00854492 4.71240234 C-44.00973574 1.74000947 -53.58899533 0.41139039 -64.0234375 0.4453125 C-65.04566406 0.42919922 -66.06789063 0.41308594 -67.12109375 0.39648438 C-68.09949219 0.39583984 -69.07789063 0.39519531 -70.0859375 0.39453125 C-71.40271484 0.39005981 -71.40271484 0.39005981 -72.74609375 0.38549805 C-75.45447211 0.82828074 -76.32835385 1.65597824 -78.0234375 3.7578125 Z " fill="#006a6a" transform="translate(123.0234375,15.2421875)"/>
<path d="M0 0 C1.5232519 1.17888637 3.02561335 2.38554309 4.5 3.625 C5.12132812 4.12386719 5.74265625 4.62273438 6.3828125 5.13671875 C12.73728787 10.7930567 17.82326868 19.59480605 20.5 27.625 C21.985 28.12 21.985 28.12 23.5 28.625 C23.76554687 28.04234375 24.03109375 27.4596875 24.3046875 26.859375 C29.82638756 16.53776574 41.56076161 11.57629906 52.04296875 7.6796875 C65.98485936 3.96533766 80.04823628 7.21611778 92.5078125 13.76953125 C104.55216285 21.23828637 112.46471497 32.09492665 116.5 45.625 C116.5 46.945 116.5 48.265 116.5 49.625 C110.67251381 52.05311925 104.7242509 52.24227907 98.5 52.625 C98.20867187 51.7071875 97.91734375 50.789375 97.6171875 49.84375 C93.24031067 36.74064703 87.86414869 29.10847079 75.41796875 22.5234375 C66.79193082 18.9938541 55.31163062 19.33265007 46.5625 22.1875 C36.1100413 26.67609338 29.18682949 34.06105592 24.6875 44.4375 C21.20260333 54.9756606 22.14765667 65.34770811 26.7578125 75.35546875 C31.73756816 84.34896189 38.42490299 90.03855834 48.01171875 93.75390625 C57.30051573 96.07350505 67.12092198 94.9077887 76.5 93.625 C78.65294651 98.91330549 80.77933894 104.17623997 82.5 109.625 C68.0509654 114.40342089 55.19148573 113.36053052 41.375 107 C35.25420432 103.7827618 30.27232758 99.60560753 25.5 94.625 C24.91347656 94.0165625 24.32695312 93.408125 23.72265625 92.78125 C21.50053026 88.86235689 22.46084279 84.50540775 22.6875 80.1328125 C22.47622606 76.18022916 21.62911612 73.94075652 19.5 70.625 C15.38823078 68.64818788 13.25589228 68.44563573 8.8125 69.5 C4.56033511 72.22780389 3.04177809 74.8759937 1.5 79.625 C1.32561745 81.16581297 1.15893824 82.70751742 1 84.25 C0.36926646 87.56995199 -0.22652625 88.42521933 -3.0078125 90.45703125 C-11.88869098 95.03101753 -20.1083719 96.97719353 -30 96.9375 C-31.20462891 96.96166992 -31.20462891 96.96166992 -32.43359375 96.98632812 C-38.10737407 96.990926 -42.29604185 95.88681208 -47.5 93.625 C-47.07847656 92.72136719 -46.65695313 91.81773438 -46.22265625 90.88671875 C-45.67480469 89.70722656 -45.12695312 88.52773437 -44.5625 87.3125 C-44.01722656 86.14074219 -43.47195312 84.96898438 -42.91015625 83.76171875 C-41.46515061 80.68806938 -41.46515061 80.68806938 -40.5 77.625 C-39.283125 77.955 -38.06625 78.285 -36.8125 78.625 C-25.30513851 81.11405311 -14.24825618 80.18208671 -3.99609375 74.15234375 C3.85333717 68.53422314 9.70313627 60.73911515 12.0625 51.31640625 C13.97279974 39.56465161 12.35112634 28.53860128 5.3125 18.75 C-1.15281229 11.10791781 -10.47292932 5.62770707 -20.5 4.625 C-30.71741329 3.80198636 -39.37994053 6.22745606 -47.625 12.3203125 C-49.5 13.625 -49.5 13.625 -52.5 14.625 C-53.58606564 16.48409535 -53.58606564 16.48409535 -54.5 18.625 C-55.3034104 19.83939591 -56.11627319 21.04758068 -56.9375 22.25 C-59.81523155 26.76241929 -61.20001323 31.46732893 -62.5 36.625 C-64.54224637 36.50985851 -66.58380159 36.38242674 -68.625 36.25 C-69.76195312 36.18039063 -70.89890625 36.11078125 -72.0703125 36.0390625 C-75.45393616 35.63056124 -78.31612441 34.81532431 -81.5 33.625 C-78.51436748 19.18022554 -71.2354767 8.18084108 -59.4375 -0.5625 C-41.19458459 -11.90605047 -17.94489549 -11.95426872 0 0 Z " fill="#006a6a" transform="translate(224.5,26.375)"/>
<path d="M0 0 C0.38478516 0.97839844 0.38478516 0.97839844 0.77734375 1.9765625 C4.26744204 9.94385759 8.47053331 13.67084283 16.44067383 17.02807617 C24.41109148 19.97161487 32.47369393 21.85036005 40.77148438 23.62304688 C50.19717029 25.75442502 60.83794109 29.00173863 66.59375 37.296875 C72.10199331 46.07888555 72.63809742 52.76765905 71 63 C66.82019895 77.74227126 56.38254937 89.21812181 46 100 C45.43023437 100.63292969 44.86046875 101.26585937 44.2734375 101.91796875 C26.0861519 121.55091039 -1.7521921 133.63861628 -25 146 C-57.1842051 163.12118664 -89.47977349 180.64549773 -116 206 C-116.8765625 206.8353125 -117.753125 207.670625 -118.65625 208.53125 C-123.89931824 213.64485976 -128.50787813 218.97958181 -132.89453125 224.84765625 C-135.28389572 227.29021622 -136.64774911 227.71333282 -140 228 C-136.31302067 220.11679005 -130.97878673 213.92914245 -125.28222656 207.45703125 C-124.21925458 206.24914534 -123.16682273 205.03199321 -122.1171875 203.8125 C-120.43065684 201.85710214 -118.71981466 199.92619242 -117 198 C-115.78763672 196.63101563 -115.78763672 196.63101563 -114.55078125 195.234375 C-108.09054657 188.01252501 -101.22666084 181.44645454 -94 175 C-93.17886719 174.24074219 -92.35773438 173.48148438 -91.51171875 172.69921875 C-85.2696987 166.94757016 -78.67648321 161.71408531 -71.96435547 156.53173828 C-69.93010738 154.94550008 -67.91896879 153.33314578 -65.91015625 151.71484375 C-45.32767452 135.23665578 -20.35347391 115.52180685 5.79296875 109.78515625 C24.70011338 105.15624508 39.82915983 86.08477652 49.625 70.47265625 C52.70809581 64.92833907 53.95953071 60.30548752 53 54 C51.59212153 49.67411644 49.41560235 46.87649881 45.53442383 44.47338867 C36.91909653 40.20903092 28.14806868 37.26057058 18.97851562 34.43359375 C7.49366949 30.77365992 -3.21749365 26.71045827 -9.24609375 15.73046875 C-11.22129338 11.60920447 -12.21078265 8.62100434 -12 4 C-10.3767313 3.3291288 -8.75132422 2.66342971 -7.125 2 C-6.22007812 1.62875 -5.31515625 1.2575 -4.3828125 0.875 C-2 0 -2 0 0 0 Z " fill="#006a6a" transform="translate(157,113)"/>
<path d="M0 0 C4.0714176 0.25778063 8.0913015 0.3028995 12 -1 C12.495 -0.0409375 12.495 -0.0409375 13 0.9375 C15.59422182 3.61279126 17.46746778 3.69504356 21.0625 4.1171875 C23.33065512 4.1431693 23.33065512 4.1431693 26 2 C26.99 2 27.98 2 29 2 C29.5775 2.680625 30.155 3.36125 30.75 4.0625 C32.94954173 6.41686658 32.94954173 6.41686658 36.5 5.75 C38.2325 5.37875 38.2325 5.37875 40 5 C44 5 44 5 46.375 6.625 C48.99871571 8.37398369 48.99871571 8.37398369 52.125 7.1875 C53.07375 6.795625 54.0225 6.40375 55 6 C55.99 6 56.98 6 58 6 C58 6.99 58 7.98 58 9 C56.86304688 9.59425781 55.72609375 10.18851562 54.5546875 10.80078125 C41.642929 17.67787924 27.81846459 25.13483418 20 38 C19.54238281 38.73734375 19.08476562 39.4746875 18.61328125 40.234375 C17.75292049 41.62475743 16.90592137 43.0235806 16.078125 44.43359375 C15 46 15 46 13 47 C11.48154798 47.09472912 9.95889616 47.1298841 8.4375 47.125 C7.22900391 47.12886719 7.22900391 47.12886719 5.99609375 47.1328125 C4 47 4 47 3 46 C3.00588717 44.43695563 3.0549782 42.87398625 3.125 41.3125 C3.1723546 35.78779718 2.08405991 32.23292133 -1.75 28.125 C-5.50157812 26.24921094 -8.85125499 26.31713612 -12.84375 27.5859375 C-24.01640488 32.57700054 -33.17936049 42.67729982 -42 51 C-42.8559375 51.80179687 -43.711875 52.60359375 -44.59375 53.4296875 C-51.47446863 60.07088745 -57.25298571 67.38739719 -63 75 C-63.67337402 75.88945312 -63.67337402 75.88945312 -64.36035156 76.796875 C-66.92289926 80.18611145 -69.46865039 83.58736571 -72 87 C-75.93502089 83.19191527 -77.16728942 81.36243129 -77.3125 75.875 C-77.14613514 65.213785 -71.11652756 59.40999261 -64 52 C-63.45601562 51.40445313 -62.91203125 50.80890625 -62.3515625 50.1953125 C-50.1514605 37.25205708 -34.0528186 27.27967829 -19 18 C-19.495 17.01 -19.495 17.01 -20 16 C-34.16679071 24.51514548 -47.72508246 33.67614491 -59.83203125 44.9921875 C-61.88930615 46.89748353 -64.0190098 48.66140326 -66.1875 50.4375 C-69.91660489 53.67987433 -72.53956525 57.33942748 -75.26953125 61.4375 C-77.5038499 64.7461073 -79.94877445 67.86036391 -82.421875 70.9921875 C-83.51490876 72.38282946 -84.56480246 73.80805897 -85.578125 75.2578125 C-86.04734375 75.83273437 -86.5165625 76.40765625 -87 77 C-87.66 77 -88.32 77 -89 77 C-91.15364435 70.53906695 -91.31319976 61.85811884 -88.5 55.5625 C-85.83040549 51.16606988 -82.00023615 48.14501325 -78 45 C-76.81664062 44.02546875 -76.81664062 44.02546875 -75.609375 43.03125 C-57.54298681 28.25998922 -37.18682957 16.68491237 -16.76074219 5.53564453 C-14.96690532 4.53783467 -13.18990144 3.50891437 -11.43457031 2.44482422 C-10.65436523 1.97705566 -9.87416016 1.50928711 -9.0703125 1.02734375 C-8.40016113 0.610896 -7.73000977 0.19444824 -7.03955078 -0.23461914 C-4.36223744 -1.23933273 -2.72220344 -0.72731907 0 0 Z " fill="#006a6a" transform="translate(131,266)"/>
<path d="M0 0 C3.29949347 1.25612295 6.30303942 2.70750115 9.375 4.4375 C23.12243612 11.39353804 37.48597295 10.95536199 52 7 C54.51882101 6.03068819 56.91747654 4.97938677 59.328125 3.76953125 C61 3 61 3 63 3 C63.19335938 4.08539063 63.38671875 5.17078125 63.5859375 6.2890625 C63.84872917 7.73441668 64.11176286 9.17972688 64.375 10.625 C64.50132812 11.33785156 64.62765625 12.05070313 64.7578125 12.78515625 C65.53100576 16.99905953 66.53395015 20.95880171 68 25 C72.54237037 22.74087421 74.96518684 19.71321598 77.6875 15.5625 C78.27241211 14.70301758 78.27241211 14.70301758 78.86914062 13.82617188 C80.79022398 10.97246002 82.56278937 8.12804667 84 5 C87.8536681 6.57001293 90.08365507 9.08365507 93 12 C106.62547869 23.82119156 120.76907414 25.35609261 138 25 C142.08714181 37.26142542 139.6596693 54.82288607 136 67 C135.01 67 134.02 67 133 67 C132.34 65.02 131.68 63.04 131 61 C130.34 61 129.68 61 129 61 C128.6596875 61.928125 128.6596875 61.928125 128.3125 62.875 C126.62070165 65.61410209 125.00755839 66.05024472 122 67 C120.29115995 65.37660195 118.62553283 63.70680947 117 62 C117 61.34 117 60.68 117 60 C116.34 60 115.68 60 115 60 C114.79375 60.639375 114.5875 61.27875 114.375 61.9375 C113 64 113 64 110.0625 64.9375 C107 65 107 65 105.1875 63.8125 C103.91229764 61.8661385 103.50803519 60.2512018 103 58 C101.989375 58.845625 100.97875 59.69125 99.9375 60.5625 C96.94149747 62.70163365 96.12673694 62.99788772 92.25 63.0625 C89 62 89 62 87.0625 60.125 C86 58 86 58 86 55 C85.319375 55.66 84.63875 56.32 83.9375 57 C80.30586782 59.47260063 78.3132535 59.47925039 74 59 C72.515 58.01 72.515 58.01 71 57 C70.57975932 54.44008319 70.31105439 52.01422182 70.125 49.4375 C69.27061063 40.92015775 67.20090689 34.74666496 60.8125 28.75 C51.29572702 21.38873543 40.33577596 19.09261173 28.86083984 16.52050781 C17.21253171 13.88809163 7.10500538 11.36494903 0 1 C0 0.67 0 0.34 0 0 Z " fill="#006a6a" transform="translate(161,116)"/>
<path d="M0 0 C0.94025528 -0.00686325 1.88051056 -0.0137265 2.84925842 -0.02079773 C5.95760187 -0.03910082 9.06544235 -0.03522353 12.17382812 -0.02954102 C14.33329432 -0.03410079 16.49275906 -0.03940575 18.65222168 -0.04542542 C23.17820125 -0.05436318 27.70400442 -0.05192536 32.22998047 -0.04199219 C38.03425376 -0.03049576 43.8379193 -0.0507213 49.64211273 -0.07990932 C54.10133745 -0.09824057 58.56041565 -0.09798509 63.01966858 -0.0922718 C65.15992587 -0.09211825 67.30019289 -0.09819103 69.44041443 -0.11056328 C72.43071834 -0.12541492 75.41988822 -0.11483921 78.41015625 -0.09765625 C79.2965126 -0.10732422 80.18286896 -0.11699219 81.09608459 -0.12695312 C84.90375317 -0.08105835 87.04337963 -0.04227998 90.25366211 2.12313843 C91.95059818 4.78988987 92.21115702 6.2555873 92.22265625 9.40039062 C92.23526489 10.39144302 92.24787354 11.38249542 92.26086426 12.40357971 C92.25276733 13.46721237 92.24467041 14.53084503 92.23632812 15.62670898 C92.24206848 17.27225014 92.24206848 17.27225014 92.2479248 18.95103455 C92.25064527 21.26847248 92.24327476 23.58594104 92.2265625 25.90332031 C92.20513577 29.45699207 92.22637166 33.00864664 92.25195312 36.56225586 C92.24931028 38.81291138 92.24418619 41.06356563 92.23632812 43.31420898 C92.24442505 44.37986588 92.25252197 45.44552277 92.26086426 46.54347229 C92.24825562 47.53137253 92.23564697 48.51927277 92.22265625 49.53710938 C92.21947388 50.40662735 92.2162915 51.27614532 92.2130127 52.17201233 C91.70507812 54.40405273 91.70507812 54.40405273 89.83679199 56.21995544 C87.70507812 57.40405273 87.70507812 57.40405273 85.08007812 57.21655273 C82.70507812 56.40405273 82.70507812 56.40405273 80.70507812 54.40405273 C80.46456909 52.53109741 80.46456909 52.53109741 80.47802734 50.22973633 C80.47817841 49.36899506 80.47832947 48.50825378 80.47848511 47.62142944 C80.48880768 46.6911795 80.49913025 45.76092957 80.50976562 44.80249023 C80.51259552 43.8508902 80.51542542 42.89929016 80.51834106 41.91885376 C80.52955823 38.87212681 80.5546655 35.8256912 80.58007812 32.77905273 C80.59010594 30.71655697 80.59923214 28.65405661 80.60742188 26.59155273 C80.62950258 21.52894006 80.66404283 16.46654583 80.70507812 11.40405273 C79.68929687 11.47551514 78.67351562 11.54697754 77.62695312 11.62060547 C69.30774987 12.18590385 61.04745439 12.5429266 52.70507812 12.46655273 C51.72796875 12.46204102 50.75085938 12.4575293 49.74414062 12.45288086 C47.39771331 12.44137876 45.05143526 12.4251414 42.70507812 12.40405273 C42.73126221 13.55929443 42.75744629 14.71453613 42.78442383 15.90478516 C42.8750816 20.20032299 42.93238363 24.49577668 42.97973633 28.79199219 C43.00484515 30.64955883 43.03893946 32.50702701 43.08227539 34.36425781 C43.14308937 37.03792631 43.17132333 39.71028639 43.19335938 42.38452148 C43.2191658 43.21179245 43.24497223 44.03906342 43.27156067 44.8914032 C43.27366664 49.24342667 43.09235855 50.90183282 40.3425293 54.46777344 C37.70507812 56.40405273 37.70507812 56.40405273 35.01757812 56.40405273 C32.70507812 55.40405273 32.70507812 55.40405273 30.70507812 52.40405273 C30.46456909 50.5247345 30.46456909 50.5247345 30.47802734 48.39160156 C30.47817841 47.59099808 30.47832947 46.79039459 30.47848511 45.9655304 C30.48880768 45.10606308 30.49913025 44.24659576 30.50976562 43.36108398 C30.51259552 42.47748703 30.51542542 41.59389008 30.51834106 40.68351746 C30.52953715 37.86105819 30.55464062 35.03891611 30.58007812 32.21655273 C30.59010867 30.30314586 30.59923439 28.38973401 30.60742188 26.47631836 C30.62777318 21.7853426 30.66692268 17.09505277 30.70507812 12.40405273 C19.81507813 12.40405273 8.92507813 12.40405273 -2.29492188 12.40405273 C-2.24851562 15.40112305 -2.20210938 18.39819336 -2.15429688 21.48608398 C-2.12311193 24.38523667 -2.09881809 27.28437076 -2.07519531 30.18359375 C-2.05506578 32.20028023 -2.02775951 34.21690824 -1.99316406 36.23339844 C-1.94470465 39.13027356 -1.92196689 42.02637788 -1.90429688 44.92358398 C-1.88365173 45.82679886 -1.86300659 46.73001373 -1.84173584 47.66059875 C-1.83949741 53.88892104 -1.83949741 53.88892104 -4.15527344 56.50830078 C-6.96271142 57.68361912 -8.44406214 57.37934685 -11.29492188 56.40405273 C-13.81353895 53.88543566 -13.55567381 53.0288748 -13.58544922 49.54296875 C-13.59820892 48.53174454 -13.61096863 47.52052032 -13.62411499 46.47865295 C-13.62634064 45.38282394 -13.62856628 44.28699493 -13.63085938 43.15795898 C-13.63751617 42.03590561 -13.64417297 40.91385223 -13.65103149 39.75779724 C-13.66117086 37.3813542 -13.66584812 35.00488262 -13.66552734 32.62841797 C-13.66989998 28.98479493 -13.70620641 25.34238309 -13.74414062 21.69897461 C-13.75000848 19.39364023 -13.75397808 17.08830007 -13.75585938 14.78295898 C-13.77023041 13.68915421 -13.78460144 12.59534943 -13.79940796 11.46839905 C-13.79017807 9.94683449 -13.79017807 9.94683449 -13.78076172 8.39453125 C-13.78361176 7.50121597 -13.78646179 6.6079007 -13.78939819 5.68751526 C-13.29492188 3.40405273 -13.29492188 3.40405273 -11.8454895 1.61740112 C-7.95034504 -0.23558533 -4.2622487 -0.02164721 0 0 Z " fill="#006a6a" transform="translate(284.294921875,320.595947265625)"/>
<path d="M0 0 C7.93085451 5.65725372 13.74752816 13.38780876 16.12890625 22.8984375 C18.16036744 35.10534269 15.41657478 45.4799581 8.2578125 55.52734375 C2.56459767 62.25927445 -6.5607545 67.6617009 -15.43359375 68.52734375 C-26.67585357 69.33613942 -36.45558331 66.45323752 -45.43359375 59.52734375 C-52.87595423 51.97114219 -57.51520185 42.53909895 -57.68359375 31.90234375 C-57.55144168 21.02622855 -54.02579493 12.49707749 -46.58203125 4.55078125 C-33.68723349 -7.52203737 -15.09872252 -9.13678715 0 0 Z M-40.43359375 14.52734375 C-44.9357427 21.09623601 -47.43456598 28.16441124 -45.953125 36.1015625 C-43.62804788 44.69535582 -40.01556536 49.53454243 -32.5546875 54.328125 C-26.35655357 57.83241067 -17.7494543 57.66816039 -10.98046875 55.87890625 C-4.69348759 52.98293461 0.10873319 48.15115526 3.44140625 42.15234375 C5.98985933 33.94066159 6.08003272 27.50700825 2.56640625 19.52734375 C-0.93396123 13.13050606 -5.56825741 9.03852643 -12.43359375 6.52734375 C-23.03629393 4.06409017 -32.80172684 6.6128151 -40.43359375 14.52734375 Z " fill="#006a6a" transform="translate(363.43359375,213.47265625)"/>
<path d="M0 0 C3.30148611 2.0956699 6.27471235 4.55312793 9.28515625 7.04296875 C13.50014752 10.49986807 17.88815816 13.71952886 22.26074219 16.97314453 C25.59661539 19.45959691 28.92236999 21.9595647 32.25 24.45703125 C33.54683637 25.429739 34.84371049 26.40239643 36.140625 27.375 C36.76646484 27.8484082 37.39230469 28.32181641 38.03710938 28.80957031 C39.41907395 29.83744944 40.81800673 30.84270949 42.22851562 31.83105469 C42.95232422 32.34571289 43.67613281 32.86037109 44.421875 33.390625 C45.0828418 33.85009521 45.74380859 34.30956543 46.42480469 34.78295898 C48.30087418 36.55347776 48.64239235 37.61758463 49 40.14453125 C49 41.17578125 49 42.20703125 49 43.26953125 C41.62876693 48.11160399 33.84389634 52.07838289 26 56.08203125 C24.93184052 56.62787872 24.93184052 56.62787872 23.84210205 57.18475342 C20.85782547 58.70929432 17.87311832 60.23296613 14.88638306 61.75268555 C10.30865752 64.08333691 5.74469237 66.43843715 1.19085693 68.81541443 C-1.71214175 70.32704362 -4.62274683 71.82358303 -7.53515625 73.31698608 C-8.91958092 74.03080984 -10.30083597 74.7508174 -11.67871094 75.47720337 C-13.60305416 76.49017778 -15.53782836 77.47976058 -17.4765625 78.46484375 C-19.1174585 79.3158667 -19.1174585 79.3158667 -20.79150391 80.18408203 C-24.60707332 81.47490699 -27.10548852 81.12001434 -31 80.26953125 C-31.6875 76.95703125 -31.6875 76.95703125 -32 73.26953125 C-29.80830422 70.27759521 -26.72826355 68.96121649 -23.45703125 67.3515625 C-22.38388672 66.81982422 -21.31074219 66.28808594 -20.20507812 65.74023438 C-18.52575195 64.91942383 -18.52575195 64.91942383 -16.8125 64.08203125 C-15.68134766 63.52322266 -14.55019531 62.96441406 -13.38476562 62.38867188 C-10.59246321 61.01019347 -7.79751362 59.63739469 -5 58.26953125 C-6.11210008 45.21216793 -7.40382016 32.19588583 -9.03442383 19.19189453 C-9.76464127 13.1726488 -10.33587591 7.33361819 -10 1.26953125 C-6.74100085 -2.28574055 -4.21031778 -2.13238077 0 0 Z M3 17.26953125 C3.46460602 25.55908077 4.08508338 33.82309841 4.9375 42.08203125 C5.01210449 42.86433105 5.08670898 43.64663086 5.16357422 44.45263672 C5.51768414 48.81905811 5.51768414 48.81905811 8 52.26953125 C15.92 48.30953125 23.84 44.34953125 32 40.26953125 C32 39.60953125 32 38.94953125 32 38.26953125 C30.34064068 36.7728635 30.34064068 36.7728635 28.16015625 35.2578125 C27.34353516 34.66419922 26.52691406 34.07058594 25.68554688 33.45898438 C24.81994141 32.83958984 23.95433594 32.22019531 23.0625 31.58203125 C21.38582552 30.37102742 19.71004153 29.1587897 18.03515625 27.9453125 C17.20516113 27.34541504 16.37516602 26.74551758 15.52001953 26.12744141 C12.19153369 23.6734812 8.94719049 21.11974507 5.71264648 18.54370117 C4.2220536 17.17004743 4.2220536 17.17004743 3 17.26953125 Z " fill="#006a6a" transform="translate(357,103.73046875)"/>
<path d="M0 0 C-0.33 0.66 -0.66 1.32 -1 2 C-1.54527344 1.73445313 -2.09054687 1.46890625 -2.65234375 1.1953125 C-16.43260421 -5.25903171 -31.65504512 -6.36297138 -46.08203125 -1.18359375 C-47.04496094 -0.79300781 -48.00789063 -0.40242188 -49 0 C-49.87011719 0.33902344 -50.74023438 0.67804687 -51.63671875 1.02734375 C-58.95348438 4.25499075 -64.35068768 9.4688292 -70 15 C-72.23564957 12.76435043 -73.25638231 10.69018493 -74.6875 7.875 C-81.86035534 -5.3645354 -92.72202812 -13.34966819 -107 -18 C-114.97876381 -19.98950994 -122.8103838 -20.26137073 -131 -20 C-102.69195053 -48.30804947 -25.83496074 -19.11079288 0 0 Z " fill="#006a6a" transform="translate(317,35)"/>
<path d="M0 0 C-0.66 1.32 -1.32 2.64 -2 4 C0.31 4.66 2.62 5.32 5 6 C1.90754502 9.4159965 -1.27317638 11.43528593 -5.3125 13.625 C-27.64650727 26.02296553 -48.29651539 41.94362643 -67.50927734 58.70019531 C-68.74866377 59.78085259 -69.99286849 60.85598086 -71.23828125 61.9296875 C-86.45400451 75.09774614 -100.55387968 88.94083649 -113.1875 104.625 C-113.69917725 105.25889648 -114.21085449 105.89279297 -114.73803711 106.54589844 C-117.69832264 110.25146115 -120.43010472 114.01328895 -123 118 C-123.66 117.67 -124.32 117.34 -125 117 C-116.67425977 90.27203954 -90.69319206 65.26917597 -71 46 C-68.3326464 43.34616339 -65.68196968 40.67778721 -63.0546875 37.984375 C-56.37797079 31.16932418 -49.53901755 24.86368031 -42 19 C-40.50755299 17.82585062 -39.01538866 16.65134188 -37.5234375 15.4765625 C-35.91208269 14.21274522 -34.30010122 12.94972651 -32.6875 11.6875 C-31.92219971 11.0881665 -31.15689941 10.48883301 -30.3684082 9.87133789 C-28.25778125 8.23081667 -26.1328684 6.61144784 -24 5 C-22.989375 4.22914063 -21.97875 3.45828125 -20.9375 2.6640625 C-17.35367605 0.63386436 -14.39309288 0.15443351 -10.3125 -0.3125 C-8.35763672 -0.55419922 -8.35763672 -0.55419922 -6.36328125 -0.80078125 C-3 -1 -3 -1 0 0 Z " fill="#006a6a" transform="translate(140,219)"/>
<path d="M0 0 C1.32 4.29 2.64 8.58 4 13 C2.246875 13.94875 0.49375 14.8975 -1.3125 15.875 C-11.10673427 21.61326902 -18.59398563 29.14371224 -25.625 38.0078125 C-37.98298552 53.5772482 -50.34398505 69.05271681 -71.28515625 71.83203125 C-74.73260141 72.04532642 -77.63850642 71.76397581 -81 71 C-79.48418428 67.4951774 -77.41191253 65.0908738 -74.8125 62.3125 C-71.93035029 59.17375191 -69.18646964 56.02995601 -66.625 52.625 C-62.13197737 46.73830831 -57.07706026 41.3786678 -52 36 C-51.26910156 35.21496094 -50.53820312 34.42992187 -49.78515625 33.62109375 C-39.5438752 22.96024439 -15.73948352 0 0 0 Z " fill="#006a6a" transform="translate(142,119)"/>
<path d="M0 0 C-0.474375 0.433125 -0.94875 0.86625 -1.4375 1.3125 C-3.23686957 3.02309613 -3.23686957 3.02309613 -4 6 C-2.68 6.33 -1.36 6.66 0 7 C0 7.66 0 8.32 0 9 C-2.07309185 10.60097166 -4.15024906 12.09070872 -6.3125 13.5625 C-15.95515769 20.29248741 -24.81178061 27.71271764 -33.4609375 35.6796875 C-35.54494903 37.58415342 -37.65871086 39.42615302 -39.8125 41.25 C-48.20446047 48.54961851 -56.20932135 56.61794983 -63.38671875 65.11328125 C-65.23962096 67.28023468 -67.18376036 69.34935574 -69.125 71.4375 C-78.24383135 81.55054805 -86.2520086 92.71420491 -94.01733398 103.88574219 C-94.98868937 105.27345142 -95.99092431 106.63947273 -97 108 C-97.33 108 -97.66 108 -98 108 C-99.99617302 90.43367739 -82.14299587 70.13722804 -72 57 C-67.85444492 51.80041884 -63.60582247 46.68787452 -59.3059082 41.61547852 C-57.81427035 39.82074033 -57.81427035 39.82074033 -56 37 C-55.34 37 -54.68 37 -54 37 C-53.73227783 36.41081787 -53.46455566 35.82163574 -53.1887207 35.21459961 C-51.98568535 32.97333165 -50.72212944 31.41031708 -48.98046875 29.56640625 C-48.07433838 28.60202637 -48.07433838 28.60202637 -47.14990234 27.61816406 C-46.50230957 26.93979492 -45.8547168 26.26142578 -45.1875 25.5625 C-44.52186035 24.85963867 -43.8562207 24.15677734 -43.17041016 23.43261719 C-38.78737796 18.8238271 -34.35852675 14.26106925 -29.875 9.75 C-29.35574951 9.22607666 -28.83649902 8.70215332 -28.30151367 8.16235352 C-20.27132879 0.16622259 -20.27132879 0.16622259 -16.28125 -0.35546875 C-14.90453125 -0.27232422 -14.90453125 -0.27232422 -13.5 -0.1875 C-10.60148279 -0.03687481 -8.19289873 0.03999812 -5.34375 -0.55078125 C-3 -1 -3 -1 0 0 Z " fill="#006a6a" transform="translate(117,212)"/>
<path d="M0 0 C1.19625 0.556875 2.3925 1.11375 3.625 1.6875 C4.40875 2.120625 5.1925 2.55375 6 3 C3.67065708 4.87850236 1.33831822 6.74593974 -1.0546875 8.54296875 C-8.8899509 14.46686167 -15.26492005 20.92941544 -21.25 28.6875 C-31.85647675 42.41135218 -43.97041127 57.52002423 -62 61 C-64.03930952 61.11630014 -66.08241546 61.17495341 -68.125 61.1875 C-69.17945312 61.20167969 -70.23390625 61.21585937 -71.3203125 61.23046875 C-74 61 -74 61 -76 59 C-72.4296746 54.55482666 -68.77221611 50.67668591 -64.25 47.1875 C-55.75560742 40.59079087 -48.54670889 32.93855695 -41.953125 24.46875 C-16.36042996 -7.88041653 -16.36042996 -7.88041653 0 0 Z " fill="#006a6a" transform="translate(194,156)"/>
<path d="M0 0 C-2.94543497 3.11951505 -6.05732656 5.53564371 -9.5625 8 C-17.97531101 14.24044081 -24.52029034 21.79500179 -31 30 C-40.88806697 42.47017352 -52.12552994 55.75903925 -68.78125 58.44921875 C-73.71279737 58.8814377 -78.13028008 59.18452647 -83 58 C-79.17313828 49.5551465 -70.05906804 42.73874105 -61.76171875 38.98828125 C-59.64680299 38.06153029 -59.64680299 38.06153029 -59 35 C-58.34 35 -57.68 35 -57 35 C-56.75121094 34.43023437 -56.50242187 33.86046875 -56.24609375 33.2734375 C-54.8103822 30.65405155 -53.11292544 28.79778356 -51.0625 26.625 C-47.3096971 22.55344942 -43.91041067 18.33688421 -40.5625 13.9375 C-28.02431498 -2.34719842 -19.66848175 -6.94371687 0 0 Z " fill="#006a6a" transform="translate(179,151)"/>
<path d="M0 0 C2.30142005 1.68770804 2.99243989 2.653773 3.875 5.375 C5.10276763 14.14476876 0.19145088 20.81188266 -4.85253906 27.51318359 C-16.00115518 41.86770854 -30.22734839 57.46536158 -49.125 60.375 C-50.64313104 60.4850837 -52.16544051 60.5492647 -53.6875 60.5625 C-54.80318359 60.58376953 -54.80318359 60.58376953 -55.94140625 60.60546875 C-58.38885664 60.34715109 -60.00405958 59.59177534 -62.125 58.375 C-57.39924863 52.93819808 -52.65316469 47.80758215 -47.16015625 43.14453125 C-41.1138899 37.8874129 -35.78293514 32.17853244 -30.95703125 25.79296875 C-28.78687847 22.92873726 -26.5621673 20.11471716 -24.3125 17.3125 C-23.18908203 15.90291016 -23.18908203 15.90291016 -22.04296875 14.46484375 C-21.41003906 13.77519531 -20.77710938 13.08554688 -20.125 12.375 C-19.465 12.375 -18.805 12.375 -18.125 12.375 C-17.89554688 11.78976563 -17.66609375 11.20453125 -17.4296875 10.6015625 C-15.78463287 7.79413394 -13.94026199 6.56213493 -11.25 4.75 C-9.95449219 3.86441406 -9.95449219 3.86441406 -8.6328125 2.9609375 C-2.6965981 -0.79311709 -2.6965981 -0.79311709 0 0 Z " fill="#006a6a" transform="translate(204.125,162.625)"/>
<path d="M0 0 C2.23828125 1.62890625 2.23828125 1.62890625 4.3125 3.5625 C5.00988281 4.20316406 5.70726562 4.84382812 6.42578125 5.50390625 C6.94527344 5.99761719 7.46476562 6.49132812 8 7 C5.91909939 9.18334495 3.77152754 10.94672797 1.3125 12.6875 C-5.7810523 17.96551789 -11.36270846 24.28697851 -16.796875 31.21875 C-40.61399611 61.28575396 -40.61399611 61.28575396 -57 64 C-61.67938536 64.21903506 -66.32002204 64.17974311 -71 64 C-71 59.7222946 -69.02888704 58.18243894 -66.23828125 55.08984375 C-63.91200554 52.91784112 -61.61570186 51.421609 -58.875 49.8125 C-48.50551815 43.55947454 -40.57989811 34.00157067 -33.10546875 24.62109375 C-10.63928721 -3.3470098 -10.63928721 -3.3470098 0 0 Z " fill="#006a6a" transform="translate(150,136)"/>
<path d="M0 0 C0.76441406 0.31453125 1.52882812 0.6290625 2.31640625 0.953125 C7.86418424 3.11732369 11.4470147 3.24763691 17 1 C18.0209375 2.2375 18.0209375 2.2375 19.0625 3.5 C21.80976644 6.30127117 21.80976644 6.30127117 25.5 6.4375 C28.71048591 6.03618926 31.10438607 5.40393403 34 4 C34.53625 4.66 35.0725 5.32 35.625 6 C37.8719388 8.26038763 37.8719388 8.26038763 41 8.375 C43.83526512 8.02059186 45.58950039 7.48338437 48 6 C49.0828125 6.99 49.0828125 6.99 50.1875 8 C53.22207622 10.15792086 54.3829832 10.58654327 58 10 C58.66 9.34 59.32 8.68 60 8 C62.125 8.375 62.125 8.375 64 9 C64 9.66 64 10.32 64 11 C64.66 11 65.32 11 66 11 C62.86432735 18.12652874 54.94712466 25.51184287 48 29 C45.875 28.8125 45.875 28.8125 44 28 C42.25 25.4375 42.25 25.4375 41 23 C40.278125 23.845625 39.55625 24.69125 38.8125 25.5625 C36 28 36 28 33.4375 28.125 C30.31916226 26.6857672 28.93381885 24.79329389 27 22 C26.443125 22.66 25.88625 23.32 25.3125 24 C23 26 23 26 20.4375 26.4375 C17.57755084 25.92417579 16.71170512 25.31080191 15 23 C14.505 21.515 14.505 21.515 14 20 C13.34 19.67 12.68 19.34 12 19 C12 19.66 12 20.32 12 21 C9.68943863 23.31056137 8.25675801 23.96255612 5 24.4375 C1.29984585 23.89789419 0.21982534 22.95976712 -2 20 C-2.75 17.75 -2.75 17.75 -3 16 C-3.66 16 -4.32 16 -5 16 C-5.33 16.99 -5.66 17.98 -6 19 C-9.25 20.375 -9.25 20.375 -13 21 C-15.9375 19.625 -15.9375 19.625 -18 18 C-16.89822514 14.69467543 -16.10316567 13.98696973 -13.5 11.8125 C-12.7884375 11.20921875 -12.076875 10.6059375 -11.34375 9.984375 C-10.5703125 9.32953125 -9.796875 8.6746875 -9 8 C-7.32937152 6.52530943 -5.66261168 5.04622309 -4 3.5625 C-3.236875 2.88316406 -2.47375 2.20382813 -1.6875 1.50390625 C-1.130625 1.00761719 -0.57375 0.51132813 0 0 Z " fill="#006a6a" transform="translate(210,210)"/>
<path d="M0 0 C1.010625 0.680625 2.02125 1.36125 3.0625 2.0625 C6.98893655 4.32438231 9.57604269 4.10598933 14 3 C14.99 2.67 15.98 2.34 17 2 C18.0209375 3.2375 18.0209375 3.2375 19.0625 4.5 C21.80976644 7.30127117 21.80976644 7.30127117 25.5 7.4375 C28.71048591 7.03618926 31.10438607 6.40393403 34 5 C34.7734375 5.99 34.7734375 5.99 35.5625 7 C37.93103111 9.31615264 37.93103111 9.31615264 41.5 9.375 C44.61332584 9.04142937 46.40424019 8.66128628 49 7 C49.515625 7.680625 50.03125 8.36125 50.5625 9.0625 C52.94017421 11.40087453 52.94017421 11.40087453 56.5 10.75 C58.2325 10.37875 58.2325 10.37875 60 10 C61.32 10 62.64 10 64 10 C64.495 11.98 64.495 11.98 65 14 C62.33601004 15.58786868 59.66832472 17.16942828 57 18.75 C56.25621094 19.1934375 55.51242188 19.636875 54.74609375 20.09375 C52.5086692 21.41674887 50.26009074 22.71612646 48 24 C46.90751953 24.62165039 46.90751953 24.62165039 45.79296875 25.25585938 C45.09816406 25.63033203 44.40335937 26.00480469 43.6875 26.390625 C43.07261719 26.72610352 42.45773438 27.06158203 41.82421875 27.40722656 C39.4901034 28.1656891 38.26828932 27.88067158 36 27 C34.25 24.9375 34.25 24.9375 33 23 C32.443125 23.66 31.88625 24.32 31.3125 25 C29 27 29 27 26.4375 27.4375 C23.59216534 26.92679891 22.65261556 26.34845369 21 24 C21 23.01 21 22.02 21 21 C20.13375 21.845625 19.2675 22.69125 18.375 23.5625 C15.86800172 25.63684846 15.21408634 25.98740669 11.8125 26.1875 C9 25 9 25 7.125 21.9375 C6.75375 20.968125 6.3825 19.99875 6 19 C4.948125 19.9590625 4.948125 19.9590625 3.875 20.9375 C0.67128224 23.23581926 -1.06622284 24 -5 24 C-7.875 22.3125 -7.875 22.3125 -10 20 C-10 18.68 -10 17.36 -10 16 C-10.99 16 -11.98 16 -13 16 C-13.33 16.99 -13.66 17.98 -14 19 C-16.95664519 20.4783226 -19.74229737 20.06032783 -23 20 C-23.66 18.68 -24.32 17.36 -25 16 C-23.865625 15.34773437 -22.73125 14.69546875 -21.5625 14.0234375 C-10.41035364 7.57034632 -10.41035364 7.57034632 0 0 Z " fill="#006a6a" transform="translate(189,228)"/>
<path d="M0 0 C0 3.90838866 -1.50567876 5.11594107 -4 8 C-3.01 8.33 -2.02 8.66 -1 9 C-4.39256371 13.19606564 -7.88246838 16.87154853 -11.9375 20.4375 C-15.73596434 23.78674476 -19.10338284 27.24547637 -22.36328125 31.11328125 C-23.95615725 32.9494605 -25.62512156 34.62669033 -27.375 36.3125 C-31.08488557 39.96467624 -34.30490824 43.94842462 -37.5625 48.00390625 C-39.62846353 50.54331976 -41.74513223 53.0249458 -43.89306641 55.49487305 C-48.85352194 61.22554685 -53.43661573 67.16835649 -57.875 73.3125 C-58.4102832 74.05314697 -58.94556641 74.79379395 -59.49707031 75.55688477 C-62.52045242 79.79104137 -65.35310434 84.0897848 -68.02392578 88.55541992 C-68.50708252 89.27048706 -68.50708252 89.27048706 -69 90 C-69.33 90 -69.66 90 -70 90 C-69.45060407 68.32383344 -55.48979364 48.74395916 -43 32 C-42.5654248 31.41234863 -42.13084961 30.82469727 -41.68310547 30.21923828 C-35.97234908 22.52232589 -29.85745004 15.22129421 -23.56640625 7.99609375 C-21.04172816 5.20239534 -21.04172816 5.20239534 -19.515625 2.609375 C-18 1 -18 1 -15.29296875 0.64453125 C-13.75576172 0.72767578 -13.75576172 0.72767578 -12.1875 0.8125 C-7.95624653 0.96123497 -4.16126161 0.9247248 0 0 Z " fill="#006a6a" transform="translate(95,202)"/>
<path d="M0 0 C0.66 0.495 1.32 0.99 2 1.5 C6.0227316 3.5113658 8.52334771 3.28881628 13 3 C13.99 2.67 14.98 2.34 16 2 C17.46843825 3.27264648 18.93524133 4.54741761 20.3828125 5.84375 C22.93980904 7.67194077 24.98003488 7.46977235 28 7 C28.99 6.34 29.98 5.68 31 5 C31.99 5 32.98 5 34 5 C34.5775 5.680625 35.155 6.36125 35.75 7.0625 C37.94954173 9.41686658 37.94954173 9.41686658 41.5 8.75 C43.2325 8.37875 43.2325 8.37875 45 8 C49 8 49 8 50.9375 9.5625 C52.92496226 11.27025335 52.92496226 11.27025335 55.5 10.8125 C57.81972976 10.05858783 59.87047416 9.18306991 62 8 C62.495 9.98 62.495 9.98 63 12 C57.67905102 14.69193871 52.34551114 17.35717193 47 20 C45.92008789 20.53560547 45.92008789 20.53560547 44.81835938 21.08203125 C42.78010416 22.08704352 40.73528405 23.07707534 38.6875 24.0625 C38.06029053 24.37324463 37.43308105 24.68398926 36.78686523 25.00415039 C32.34477153 27.11492384 32.34477153 27.11492384 29 26 C28.67 24.35 28.34 22.7 28 21 C27.113125 21.825 26.22625 22.65 25.3125 23.5 C23.13779613 25.30028552 22.1387283 25.97096384 19.3125 26.5625 C17 26 17 26 15.1875 24.125 C14 22 14 22 14 20 C13.32904297 20.55880859 13.32904297 20.55880859 12.64453125 21.12890625 C7.76412726 24.94790041 7.76412726 24.94790041 4.25 25.1875 C1.05079116 23.49902867 0.32430055 21.27590137 -1 18 C-1.721875 18.639375 -2.44375 19.27875 -3.1875 19.9375 C-6.05483613 22.04021316 -7.47605824 22.91190146 -11 23 C-13.75 21.875 -13.75 21.875 -16 20 C-16.8125 17.3125 -16.8125 17.3125 -17 15 C-17.99 15 -18.98 15 -20 15 C-20.33 15.99 -20.66 16.98 -21 18 C-23.70879335 19.35439668 -26.00933268 19.06501451 -29 19 C-29 18.01 -29 17.02 -29 16 C-28.3702124 15.65743164 -27.7404248 15.31486328 -27.09155273 14.96191406 C-24.20645659 13.39203167 -21.3219743 11.82102464 -18.4375 10.25 C-17.44685547 9.71117187 -16.45621094 9.17234375 -15.43554688 8.6171875 C-10.25898729 5.79673643 -5.1042369 2.94943283 0 0 Z " fill="#006a6a" transform="translate(161,246)"/>
<path d="M0 0 C7.62684353 6.10147483 12.87021553 13.57488201 14.8125 23.25 C15.81041062 34.25973522 13.57338803 43.82543938 6.5 52.47265625 C-0.84895076 60.21287059 -9.42904915 64.39931309 -20.125 64.75 C-30.08546834 64.42555478 -39.01691191 61.34196322 -46.1875 54.25 C-48.51179957 51.40273302 -50.4068069 48.46190437 -52.1875 45.25 C-52.52910156 44.65832031 -52.87070313 44.06664062 -53.22265625 43.45703125 C-56.82584051 35.8652058 -56.29234301 25.87753089 -54.37890625 17.86328125 C-50.51472201 7.42062417 -43.43219538 0.75478626 -33.44921875 -3.875 C-21.7480331 -8.40188357 -10.58272521 -5.81012364 0 0 Z M-44.1875 11.25 C-50.14715556 19.07566422 -50.34270958 27.85556834 -49.1875 37.25 C-46.81757927 45.86789357 -40.77577208 51.77778911 -33.3203125 56.41015625 C-26.17650535 59.70611878 -17.23556513 59.50580399 -9.86328125 57.21875 C-1.41618099 53.40324674 3.93477378 47.85549913 7.75 39.4375 C10.30543879 31.4038393 9.55783602 23.09112258 6.06640625 15.5 C1.93181783 8.08092545 -3.93601683 3.28205561 -12.07421875 0.63671875 C-24.96162466 -1.72160507 -35.48708787 1.47149333 -44.1875 11.25 Z " fill="#006a6a" transform="translate(305.1875,54.75)"/>
<path d="M0 0 C7.59016678 6.16701051 12.20327231 13.00569935 15 22.328125 C15.0825 23.153125 15.165 23.978125 15.25 24.828125 C15.31316406 25.4365625 15.37632812 26.045 15.44140625 26.671875 C16.00516542 36.71042537 12.64992981 46.40139004 6.08203125 53.96484375 C-0.96877556 61.13592018 -10.30828717 64.86981207 -20.4375 65.265625 C-31.24340596 64.65322448 -40.18203022 59.85117296 -47.5625 52.078125 C-53.64773292 44.66571832 -56.38245323 35.61969972 -55.49609375 26.1015625 C-53.87683153 15.51071231 -49.36402556 6.88139405 -40.73046875 0.28515625 C-28.35501446 -7.7837346 -12.4295194 -8.42263485 0 0 Z M-41.75 8.828125 C-47.97709189 17.08940024 -50.59704666 24.74070811 -49.34375 35.0234375 C-47.74309229 42.58443903 -44.09169227 48.54915727 -38.046875 53.35546875 C-31.02338904 57.85862216 -23.05768031 60.24590278 -14.75 58.828125 C-6.05911599 56.30999707 0.74552335 52.56858675 5.5234375 44.7421875 C9.45548312 37.24062529 10.63469114 29.50869526 8.6015625 21.16796875 C5.19419318 11.7467382 -0.31610861 5.98147637 -9.3203125 1.73828125 C-20.67060452 -2.51351624 -33.26941288 0.14735234 -41.75 8.828125 Z " fill="#006a6a" transform="translate(219.75,39.171875)"/>
<path d="M0 0 C1.37091797 0.50466797 1.37091797 0.50466797 2.76953125 1.01953125 C7.53605562 2.4662031 11.35264404 1.54911865 16 0 C17.0209375 1.2375 17.0209375 1.2375 18.0625 2.5 C20.80976644 5.30127117 20.80976644 5.30127117 24.5 5.4375 C27.71048591 5.03618926 30.10438607 4.40393403 33 3 C33.53625 3.66 34.0725 4.32 34.625 5 C36.8719388 7.26038763 36.8719388 7.26038763 40 7.375 C42.83526512 7.02059186 44.58950039 6.48338437 47 5 C47.70125 5.680625 48.4025 6.36125 49.125 7.0625 C51.84732397 9.32109285 51.84732397 9.32109285 55.0625 8.8125 C56.7838327 8.3363867 58.49807387 7.82923182 60.1875 7.25 C62 7 62 7 63.8125 8.1875 C65 10 65 10 64.78125 11.76171875 C63.77112699 14.65572117 62.31974087 17.03158945 60.6875 19.625 C60.09324219 20.58664063 59.49898438 21.54828125 58.88671875 22.5390625 C57.01818042 24.97628641 55.83280687 25.93691575 53 27 C51.68 25.02 50.36 23.04 49 21 C48.278125 21.845625 47.55625 22.69125 46.8125 23.5625 C44 26 44 26 41.4375 26.125 C38.31916226 24.6857672 36.93381885 22.79329389 35 20 C33.948125 21.0209375 33.948125 21.0209375 32.875 22.0625 C30 24 30 24 26.6875 23.75 C25.800625 23.5025 24.91375 23.255 24 23 C23.34 21.02 22.68 19.04 22 17 C20.700625 18.2375 20.700625 18.2375 19.375 19.5 C16.97043142 21.49624561 16.08210864 21.98686262 12.875 22.5 C9.64939437 21.93902511 8.22796116 21.39299532 6 19 C5.25 16.3125 5.25 16.3125 5 14 C4.34 14.66 3.68 15.32 3 16 C-1.07112242 18.71408161 -3.1775917 18.47433524 -8 18 C-8.66 17.34 -9.32 16.68 -10 16 C-9.78572011 11.86346655 -6.88483821 8.88319256 -4.4375 5.75 C-4.01275391 5.19570312 -3.58800781 4.64140625 -3.15039062 4.0703125 C-2.10601659 2.70910589 -1.05377536 1.35394167 0 0 Z " fill="#006a6a" transform="translate(223,193)"/>
<path d="M0 0 C0.58007812 0.16757813 1.16015625 0.33515625 1.7578125 0.5078125 C6.8492308 1.835278 10.03561901 2.29125276 15 0 C16.0209375 1.2375 16.0209375 1.2375 17.0625 2.5 C19.80976644 5.30127117 19.80976644 5.30127117 23.5 5.4375 C26.71048591 5.03618926 29.10438607 4.40393403 32 3 C32.53625 3.66 33.0725 4.32 33.625 5 C35.8719388 7.26038763 35.8719388 7.26038763 39 7.375 C41.83526512 7.02059186 43.58950039 6.48338437 46 5 C46.70125 5.680625 47.4025 6.36125 48.125 7.0625 C50.84732397 9.32109285 50.84732397 9.32109285 54.0625 8.8125 C55.031875 8.544375 56.00125 8.27625 57 8 C57.78375 7.814375 58.5675 7.62875 59.375 7.4375 C59.91125 7.293125 60.4475 7.14875 61 7 C62.32 8.65 63.64 10.3 65 12 C63.02 16.95 61.04 21.9 59 27 C58.01 26.67 57.02 26.34 56 26 C54.8125 22.9375 54.8125 22.9375 54 20 C53.34 20 52.68 20 52 20 C51.773125 20.61875 51.54625 21.2375 51.3125 21.875 C49.62070165 24.61410209 48.00755839 25.05024472 45 26 C43.29115995 24.37660195 41.62553283 22.70680947 40 21 C40 20.34 40 19.68 40 19 C39.34 19 38.68 19 38 19 C37.79375 19.639375 37.5875 20.27875 37.375 20.9375 C36 23 36 23 33.0625 23.9375 C30 24 30 24 28.1875 22.8125 C26.91229764 20.8661385 26.50803519 19.2512018 26 17 C24.989375 17.845625 23.97875 18.69125 22.9375 19.5625 C19.94149747 21.70163365 19.12673694 21.99788772 15.25 22.0625 C12 21 12 21 10.0625 19.125 C9 17 9 17 9 14 C8.34 14.66 7.68 15.32 7 16 C2.98141147 18.67905902 0.74694284 18.32182663 -4 18 C-5.1796875 16.453125 -5.1796875 16.453125 -6 14 C-5.16272284 11.41205242 -4.28640033 9.18152749 -3.125 6.75 C-2.82980469 6.1003125 -2.53460938 5.450625 -2.23046875 4.78125 C-1.50096566 3.18104968 -0.75230175 1.58960935 0 0 Z " fill="#006a6a" transform="translate(231,175)"/>
<path d="M0 0 C6.5108142 5.52700696 10.13484041 11.58545959 11.2734375 20.02734375 C11.66527193 27.63797412 9.19789842 33.94615043 4.4375 39.8125 C-1.26190189 45.76151074 -7.38725284 48.12320788 -15.5625 48.5 C-22.99659458 48.20558041 -29.72188785 45.27811215 -35 40 C-40.68193728 32.18733623 -41.87336106 25.65549171 -41 16 C-38.62472525 7.37671994 -33.35241669 2.63834391 -25.96484375 -1.984375 C-17.7854269 -6.21230419 -7.62718176 -4.62856707 0 0 Z M-30 7.375 C-34.76783369 12.39497874 -35.45191842 17.50760233 -35.31640625 24.2109375 C-34.69690481 29.67172795 -32.53435974 33.46564026 -28.6875 37.3125 C-23.14433307 40.79309319 -18.60237241 42.69498657 -12 42 C-5.63618531 40.43034016 -1.51487449 37.76818899 2.19140625 32.21484375 C5.04923317 27.20617846 5.96977494 22.70867519 5 17 C3.12000852 10.91505715 -0.49852911 6.22935289 -6 3 C-14.69142313 -0.43274695 -23.17272946 0.91524299 -30 7.375 Z " fill="#006a6a" transform="translate(300,62)"/>
<path d="M0 0 C7.10756131 5.36660809 10.56043074 10.57517119 12.73828125 19.3125 C13.63519693 26.74408708 11.26462807 33.43926344 7.11328125 39.5625 C2.37730291 45.39229152 -3.28504762 48.31766065 -10.69921875 49.3125 C-18.91511974 49.66772027 -24.92889416 47.79614573 -31.19921875 42.4375 C-36.27372891 37.74058497 -38.88496446 33.28456669 -39.53515625 26.4296875 C-39.80963812 17.66738171 -38.5660175 11.13822211 -32.6171875 4.46875 C-24.00878719 -3.45952839 -10.46935998 -6.45647896 0 0 Z M-27.07421875 7.0625 C-31.80307425 11.92646566 -33.51550773 15.51740219 -33.76171875 22.25 C-33.5254965 28.54925999 -32.14058707 33.15059688 -27.87109375 37.83984375 C-23.61618464 41.70285334 -19.51293158 43.10405437 -13.88671875 43.625 C-7.26047887 43.05377242 -2.95693888 41.4589733 1.61328125 36.5 C5.94532776 31.09234285 7.44546026 26.26642697 6.73828125 19.3125 C4.84872449 13.07481547 2.29680308 8.94691812 -3.26171875 5.3125 C-11.83414709 1.2248749 -19.01399029 2.04724674 -27.07421875 7.0625 Z " fill="#006a6a" transform="translate(213.26171875,45.6875)"/>
<path d="M0 0 C4.02744167 2.37477614 6.94077478 4.61769541 8.73828125 9.05859375 C10.0099073 14.34073274 9.70640926 17.99769315 7.73828125 23.05859375 C5.0522629 27.27947973 2.4639829 29.39584687 -2.26171875 31.05859375 C-7.29024995 31.73015655 -11.05731174 31.66079726 -15.63671875 29.37109375 C-20.49415567 25.09192313 -23.02826396 21.86005123 -23.57421875 15.30859375 C-23.50403456 10.5360688 -22.01937768 7.93422252 -19.26171875 4.05859375 C-13.79070264 -1.01210411 -7.11480513 -2.96143012 0 0 Z " fill="#006a6a" transform="translate(101.26171875,84.94140625)"/>
<path d="M0 0 C1.75763672 0.29583984 1.75763672 0.29583984 3.55078125 0.59765625 C2.89078125 1.31953125 2.23078125 2.04140625 1.55078125 2.78515625 C-0.70631848 5.34759277 -0.70631848 5.34759277 -0.33984375 7.984375 C-0.51717007 12.22120752 -3.3940792 14.41745574 -6.19921875 17.41015625 C-20.57282176 33.38191969 -33.78537116 51.35473166 -43.44921875 70.59765625 C-43.77921875 70.59765625 -44.10921875 70.59765625 -44.44921875 70.59765625 C-44.73231462 52.96482766 -35.03489977 35.31735735 -26.85791016 20.23974609 C-25.48448079 17.66379243 -24.20780736 15.05388554 -22.9296875 12.4296875 C-17.18639617 1.41439485 -12.52022972 -1.4811313 0 0 Z " fill="#006a6a" transform="translate(74.44921875,192.40234375)"/>
<path d="M0 0 C-0.969375 0.86625 -1.93875 1.7325 -2.9375 2.625 C-12.32342405 12.02992389 -18.69715406 24.99316693 -23.75 37.125 C-25 40 -25 40 -27 42 C-29.56640625 42.23046875 -29.56640625 42.23046875 -32.5625 42.1875 C-33.55378906 42.18105469 -34.54507813 42.17460937 -35.56640625 42.16796875 C-38 42 -38 42 -39 41 C-38.99412589 39.24951389 -38.94515066 37.49908976 -38.875 35.75 C-38.80959736 31.1539778 -39.33899119 28.81796916 -42 25 C-41.97265625 23.15234375 -41.97265625 23.15234375 -41 21 C-38.98402014 19.30878285 -37.07575217 17.91267603 -34.875 16.5 C-34.23208008 16.08000732 -33.58916016 15.66001465 -32.92675781 15.22729492 C-26.71129927 11.27167567 -20.25704406 7.76118239 -13.75 4.3125 C-12.7379248 3.77109375 -11.72584961 3.2296875 -10.68310547 2.671875 C-9.73064941 2.17816406 -8.77819336 1.68445313 -7.796875 1.17578125 C-6.94448242 0.73145752 -6.09208984 0.28713379 -5.21386719 -0.1706543 C-3 -1 -3 -1 0 0 Z " fill="#006a6a" transform="translate(205,272)"/>
<path d="M0 0 C2.55949546 1.85342775 2.97918798 2.93756393 4 6 C5.42783056 17.23538801 0.43676211 26.04333361 -6.09765625 34.78515625 C-8 37 -8 37 -11 39 C-14.30420316 28.26133973 -16.26580661 16.54054042 -11.9765625 5.77734375 C-9.1890241 0.70402385 -5.61420013 -0.8543348 0 0 Z " fill="#006a6a" transform="translate(241,98)"/>
<path d="M0 0 C2.8257197 1.69543182 3.68556639 2.91189421 4.59375 6.0546875 C5.33383828 10.28173016 5.24259722 12.48681358 3.375 16.4375 C0.84794879 19.16405526 -0.38485854 20.24334249 -4 21 C-8.48980038 20.91982499 -10.41944237 20.49221191 -13.875 17.5625 C-16.16254651 14.80398803 -16.91241522 13.77074605 -17.3125 10.25 C-16.91753151 6.14232771 -15.5942368 4.17073386 -13 1 C-8.67591947 -1.74342924 -4.81632726 -1.18637473 0 0 Z " fill="#006a6a" transform="translate(349,235)"/>
<path d="M0 0 C2.3828125 0.2421875 2.3828125 0.2421875 5.125 0.875 C6.49011719 1.18050781 6.49011719 1.18050781 7.8828125 1.4921875 C8.93082031 1.74355469 8.93082031 1.74355469 10 2 C10.2475 3.093125 10.495 4.18625 10.75 5.3125 C11.61831545 9.03191072 11.61831545 9.03191072 14.125 10.5625 C14.74375 11.036875 15.3625 11.51125 16 12 C16.51020728 16.08165827 16.31361802 17.52957297 14 21 C10.54439363 20.0575619 8.40213925 19.41396688 5.875 16.8125 C5.25625 16.214375 4.6375 15.61625 4 15 C1.90708843 15.08571661 1.90708843 15.08571661 0 16 C-0.99 16.33 -1.98 16.66 -3 17 C-3.5775 17.845625 -4.155 18.69125 -4.75 19.5625 C-7 22 -7 22 -10.75 22.3125 C-11.8225 22.209375 -12.895 22.10625 -14 22 C-13.34 21.29875 -12.68 20.5975 -12 19.875 C-9.69766797 16.56539771 -9.63369844 14.93774177 -10 11 C-10.66 10.67 -11.32 10.34 -12 10 C-9.36 9.34 -6.72 8.68 -4 8 C-4.99 7.67 -5.98 7.34 -7 7 C-4.66666667 4.66666667 -2.33333333 2.33333333 0 0 Z M-2 5 C-1 7 -1 7 -1 7 Z M-6 12 C-5.34 12.66 -4.68 13.32 -4 14 C-4 13.34 -4 12.68 -4 12 C-4.66 12 -5.32 12 -6 12 Z " fill="#006a6a" transform="translate(125,344)"/>
<path d="M0 0 C4.29 0 8.58 0 13 0 C13.433125 1.11375 13.86625 2.2275 14.3125 3.375 C15.69911119 7.17512334 15.69911119 7.17512334 19 9 C19.3125 12 19.3125 12 19 15 C18.34 15.66 17.68 16.32 17 17 C15 15 13 13 11 11 C9.15108054 10.76636119 7.29511969 10.58696365 5.4375 10.4375 C4.42558594 10.35371094 3.41367188 10.26992188 2.37109375 10.18359375 C1.58863281 10.12300781 0.80617187 10.06242187 0 10 C0.495 9.21625 0.99 8.4325 1.5 7.625 C3.16537965 5.21447673 3.16537965 5.21447673 3 3 C2.443125 3.9075 1.88625 4.815 1.3125 5.75 C-1.41829325 9.58787159 -3.52067059 12.50329933 -8.3203125 13.46484375 C-10.54987805 13.71995078 -12.75845472 13.90232918 -15 14 C-15.33 11.69 -15.66 9.38 -16 7 C-15.33613281 6.89042969 -14.67226562 6.78085937 -13.98828125 6.66796875 C-7.06365659 5.44355007 -7.06365659 5.44355007 -1 2 C-0.67 1.34 -0.34 0.68 0 0 Z " fill="#006a6a" transform="translate(164,343)"/>
<path d="M0 0 C2.66666667 1.33333333 5.33333333 2.66666667 8 4 C7.70368676 10.81520452 4.69535803 15.38350782 1 21 C-2.21852831 20.36934243 -4.50801069 19.21979305 -7.25 17.4375 C-7.95640625 16.98246094 -8.6628125 16.52742188 -9.390625 16.05859375 C-9.92171875 15.70925781 -10.4528125 15.35992187 -11 15 C-10.62488281 14.5875 -10.24976563 14.175 -9.86328125 13.75 C-6.04203965 9.43786842 -2.91486912 4.96559562 0 0 Z " fill="#006a6a" transform="translate(174,98)"/>
<path d="M0 0 C3.37245758 1.40579765 4.98208611 2.9583473 7.0625 5.9375 C8.88679154 8.52634874 10.69726795 10.82026254 13 13 C12 16 12 16 9.71484375 17.38671875 C8.79832031 17.81597656 7.88179688 18.24523437 6.9375 18.6875 C5.55884766 19.34298828 5.55884766 19.34298828 4.15234375 20.01171875 C3.08693359 20.50091797 3.08693359 20.50091797 2 21 C-2.44266665 16.39866669 -4.04239987 10.94568974 -6 5 C-5.195625 4.360625 -4.39125 3.72125 -3.5625 3.0625 C-1.7249496 1.59396498 -1.7249496 1.59396498 0 0 Z " fill="#006a6a" transform="translate(308,114)"/>
<path d="M0 0 C3.40062014 1.40715316 4.89229698 3.02868228 7 6 C5.5645497 7.77249524 4.12656197 9.54293576 2.6875 11.3125 C1.88699219 12.29863281 1.08648437 13.28476563 0.26171875 14.30078125 C-1.42688356 16.31602166 -3.09630699 18.19488009 -5 20 C-8.82792868 18.4404735 -11.36359864 16.16368164 -14 13 C-13.90625 11.02734375 -13.90625 11.02734375 -13 9 C-11.07421875 7.40234375 -11.07421875 7.40234375 -8.6875 5.9375 C-5.68534443 4.06673529 -2.80254469 2.16123012 0 0 Z " fill="#006a6a" transform="translate(167,91)"/>
<path d="M0 0 C5.40838443 3.56879789 10.74979781 7.20198139 16 11 C11.20783646 18.43611584 11.20783646 18.43611584 9 20 C5.06114153 19.63886799 3.35203983 17.6278275 0.8125 14.75 C0.11769531 13.98171875 -0.57710938 13.2134375 -1.29296875 12.421875 C-3.1285842 9.81756933 -3.81264116 8.16948709 -4 5 C-2.0625 2.1875 -2.0625 2.1875 0 0 Z " fill="#006a6a" transform="translate(316,106)"/>
<path d="M0 0 C0.99 2.31 1.98 4.62 3 7 C1.11214091 8.49041507 -0.78418108 9.96705783 -2.6875 11.4375 C-3.48317383 12.06881836 -3.48317383 12.06881836 -4.29492188 12.71289062 C-7.4860575 15.16008052 -9.97547923 16.58933461 -14 17 C-18 10.375 -18 10.375 -18 7 C-17.18015625 6.66226563 -16.3603125 6.32453125 -15.515625 5.9765625 C-14.43796875 5.53054687 -13.3603125 5.08453125 -12.25 4.625 C-10.64898437 3.96371094 -10.64898437 3.96371094 -9.015625 3.2890625 C-7.23079267 2.52611604 -5.46088172 1.72300475 -3.734375 0.8359375 C-2 0 -2 0 0 0 Z " fill="#006a6a" transform="translate(164,82)"/>
<path d="M0 0 C4.33304076 0.64465202 7.86672065 2.18925122 11.8125 4.0625 C12.97394531 4.61035156 14.13539063 5.15820312 15.33203125 5.72265625 C16.21246094 6.14417969 17.09289062 6.56570312 18 7 C17.31620454 10.95008059 16.21156817 13.63457018 14 17 C7.85541845 14.83132416 2.99123834 11.11043158 -2 7 C-1.42415568 4.61435923 -0.77772405 2.33317216 0 0 Z " fill="#006a6a" transform="translate(320,98)"/>
<path d="M0 0 C0.33 1.98 0.66 3.96 1 6 C-11.48519362 12.70387244 -11.48519362 12.70387244 -18 13 C-18.33 9.37 -18.66 5.74 -19 2 C-16.58374679 1.66340751 -14.16707192 1.33061612 -11.75 1 C-10.72712891 0.85691406 -10.72712891 0.85691406 -9.68359375 0.7109375 C-6.40628012 0.2654774 -3.31615847 0 0 0 Z " fill="#006a6a" transform="translate(162,74)"/>
<path d="M0 0 C8.91 1.485 8.91 1.485 18 3 C18 5.31 18 7.62 18 10 C11.6221448 11.17293889 5.49678438 12.29530838 -1 12 C-1.02698189 10.37509046 -1.04638757 8.75005367 -1.0625 7.125 C-1.07410156 6.22007813 -1.08570313 5.31515625 -1.09765625 4.3828125 C-1 2 -1 2 0 0 Z " fill="#006a6a" transform="translate(143,62)"/>
<path d="M0 0 C6.36061541 0.22071536 12.71719795 1.00046331 19 2 C18.125 9.625 18.125 9.625 17 13 C10.5811453 11.26375242 4.86215164 9.14819255 -1 6 C-1.042721 4.33388095 -1.04063832 2.66617115 -1 1 C-0.67 0.67 -0.34 0.34 0 0 Z " fill="#006a6a" transform="translate(323,90)"/>
<path d="M0 0 C0 3.96 0 7.92 0 12 C-2.97979894 11.69277348 -5.95873759 11.37948528 -8.9375 11.0625 C-9.78763672 10.97548828 -10.63777344 10.88847656 -11.51367188 10.79882812 C-12.32255859 10.71181641 -13.13144531 10.62480469 -13.96484375 10.53515625 C-14.7137085 10.456604 -15.46257324 10.37805176 -16.23413086 10.29711914 C-18 10 -18 10 -19 9 C-19.04080783 7.00041636 -19.04254356 4.99954746 -19 3 C-16.39643759 2.49666458 -13.79223349 1.99720622 -11.1875 1.5 C-10.08051758 1.28537109 -10.08051758 1.28537109 -8.95117188 1.06640625 C-5.92205609 0.49073719 -3.090804 0 0 0 Z " fill="#006a6a" transform="translate(342,78)"/>
<path d="M0 0 C0.86625 -0.00773437 1.7325 -0.01546875 2.625 -0.0234375 C5.39380767 0.44106642 6.26929299 1.22300246 8 3.375 C6.7934375 4.0246875 6.7934375 4.0246875 5.5625 4.6875 C2.72153646 6.17974002 2.72153646 6.17974002 2 9.375 C2.31478446 10.71283393 2.64587656 12.04703709 3 13.375 C1.41132134 14.96367866 -0.24689516 14.58294039 -2.4375 14.625 C-3.24058594 14.65078125 -4.04367188 14.6765625 -4.87109375 14.703125 C-5.57363281 14.59484375 -6.27617187 14.4865625 -7 14.375 C-9.0961314 11.23080289 -9.26710777 10.85373774 -8.8125 7.375 C-8.69841797 6.3540625 -8.69841797 6.3540625 -8.58203125 5.3125 C-7.1949086 0.69496421 -4.53606958 -0.04050062 0 0 Z " fill="#006a6a" transform="translate(211,349.625)"/>
<path d="M0 0 C0.87785156 0.01546875 1.75570312 0.0309375 2.66015625 0.046875 C4.9375 0.25 4.9375 0.25 6.9375 1.25 C5.9375 4.25 5.9375 4.25 2.9375 6.25 C2.77080682 9.79171978 2.77080682 9.79171978 2.9375 13.25 C1.9375 14.25 1.9375 14.25 -0.12890625 14.34765625 C-0.95261719 14.33605469 -1.77632812 14.32445312 -2.625 14.3125 C-3.45128906 14.30347656 -4.27757812 14.29445313 -5.12890625 14.28515625 C-5.76699219 14.27355469 -6.40507812 14.26195312 -7.0625 14.25 C-9.34973644 10.23188193 -9.1322376 7.77581294 -8.0625 3.25 C-5.7258337 0.03338659 -3.86338736 -0.11379639 0 0 Z " fill="#006a6a" transform="translate(169.0625,353.75)"/>
<path d="M0 0 C4.73846154 2.47692308 4.73846154 2.47692308 6 5 C6.13415472 7.6723621 6.04318541 10.32250488 6 13 C3.01405576 14.49297212 0.29146376 14.11755228 -3 14 C-3.66 13.67 -4.32 13.34 -5 13 C-4.9175 12.071875 -4.835 11.14375 -4.75 10.1875 C-4.64696955 6.90894778 -4.64696955 6.90894778 -7 5.125 C-7.66 4.75375 -8.32 4.3825 -9 4 C-8.6875 2.0625 -8.6875 2.0625 -8 0 C-4.60651463 -1.13116179 -3.38373646 -0.96678184 0 0 Z " fill="#006a6a" transform="translate(84,351)"/>
<path d="M0 0 C2.97 0.33 5.94 0.66 9 1 C8.27050068 3.8193355 7.51789431 6.62862343 6.75 9.4375 C6.54503906 10.23994141 6.34007812 11.04238281 6.12890625 11.86914062 C5.91621094 12.63291016 5.70351562 13.39667969 5.484375 14.18359375 C5.29584961 14.89056396 5.10732422 15.59753418 4.91308594 16.32592773 C4 18 4 18 2.04785156 18.76586914 C-0.22951333 19.02624026 -1.83048565 18.6973439 -4 18 C-3.88590407 16.54077307 -3.75834456 15.08259402 -3.625 13.625 C-3.55539063 12.81289063 -3.48578125 12.00078125 -3.4140625 11.1640625 C-3 9 -3 9 -1 7 C-0.59952556 4.67724823 -0.2602896 2.34260643 0 0 Z M1 8 C5 9 5 9 5 9 Z " fill="#006a6a" transform="translate(134,314)"/>
<path d="M0 0 C1.8125 0.625 1.8125 0.625 3.8125 2.625 C3.8125 4.9375 3.8125 4.9375 2.8125 7.625 C0.93543199 9.49140285 -1.08262567 11.0024927 -3.1875 12.625 C-3.5175 13.285 -3.8475 13.945 -4.1875 14.625 C-4.8475 14.625 -5.5075 14.625 -6.1875 14.625 C-6.1875 12.645 -6.1875 10.665 -6.1875 8.625 C-7.1775 8.625 -8.1675 8.625 -9.1875 8.625 C-9.1875 5.985 -9.1875 3.345 -9.1875 0.625 C-6.13294146 -0.90227927 -3.31506554 -0.56829695 0 0 Z " fill="#006a6a" transform="translate(111.1875,354.375)"/>
<path d="M0 0 C2.71345903 0.49909289 5.33418102 1.28065202 8 2 C7.34 5.3 6.68 8.6 6 12 C1.70600835 13.07349791 0.80504787 12.79682816 -3 11 C-2.69217504 9.35328588 -2.37860766 7.70764424 -2.0625 6.0625 C-1.88847656 5.14597656 -1.71445313 4.22945313 -1.53515625 3.28515625 C-1 1 -1 1 0 0 Z " fill="#006a6a" transform="translate(129,332)"/>
<path d="M0 0 C3.46679688 0.04882812 3.46679688 0.04882812 6.93359375 0.09765625 C6.93359375 3.06765625 6.93359375 6.03765625 6.93359375 9.09765625 C3.94764951 10.59062837 1.22505751 10.21520853 -2.06640625 10.09765625 C-2.72640625 9.76765625 -3.38640625 9.43765625 -4.06640625 9.09765625 C-3.07168497 0.1451647 -3.07168497 0.1451647 0 0 Z " fill="#006a6a" transform="translate(169.06640625,332.90234375)"/>
<path d="M0 0 C2.97 0 5.94 0 9 0 C9 2.97 9 5.94 9 9 C6.04335481 10.4783226 3.25770263 10.06032783 0 10 C0 6.7 0 3.4 0 0 Z " fill="#006a6a" transform="translate(167,322)"/>
<path d="M0 0 C0.7425 0.2475 1.485 0.495 2.25 0.75 C2.58 2.4 2.91 4.05 3.25 5.75 C2.68410156 6.15992188 2.11820313 6.56984375 1.53515625 6.9921875 C0.80167969 7.53101563 0.06820312 8.06984375 -0.6875 8.625 C-1.78384766 9.42550781 -1.78384766 9.42550781 -2.90234375 10.2421875 C-4.86098235 11.63012104 -4.86098235 11.63012104 -5.75 13.75 C-6.41 13.75 -7.07 13.75 -7.75 13.75 C-7.40682016 4.7586881 -7.40682016 4.7586881 -5 1.0625 C-2.75 -0.25 -2.75 -0.25 0 0 Z " fill="#006a6a" transform="translate(75.75,356.25)"/>
<path d="M0 0 C2.625 0.3125 2.625 0.3125 4.375 2.0625 C6.83342868 6.48767163 6.72187984 10.27474841 6.625 15.3125 C5.92375 14.590625 5.2225 13.86875 4.5 13.125 C1.69729255 10.31426187 -1.29762792 7.81733774 -4.375 5.3125 C-3.2726378 0.43061024 -3.2726378 0.43061024 0 0 Z " fill="#006a6a" transform="translate(176.375,358.6875)"/>
<path d="M0 0 C2.625 0.3125 2.625 0.3125 4.24609375 2.00390625 C5.83499209 4.66407315 6.110268 6.48857362 6.3125 9.5625 C6.41111328 10.90054687 6.41111328 10.90054687 6.51171875 12.265625 C6.54910156 12.94109375 6.58648437 13.6165625 6.625 14.3125 C5.965 14.3125 5.305 14.3125 4.625 14.3125 C3.38423923 12.81052644 2.14578183 11.30637685 0.93359375 9.78125 C-0.63034961 8.02589865 -2.17760134 7.12635136 -4.375 6.3125 C-3.32040428 0.4368953 -3.32040428 0.4368953 0 0 Z " fill="#006a6a" transform="translate(218.375,354.6875)"/>
<path d="M0 0 C3.63 0.33 7.26 0.66 11 1 C11 3.64 11 6.28 11 9 C7.7 9.33 4.4 9.66 1 10 C0.67 6.7 0.34 3.4 0 0 Z " fill="#006a6a" transform="translate(90,354)"/>
<path d="M0 0 C0 3.63 0 7.26 0 11 C-2.64 11 -5.28 11 -8 11 C-9.06546953 7.8035914 -9.07427838 5.34252724 -9 2 C-2.25 0 -2.25 0 0 0 Z " fill="#006a6a" transform="translate(202,352)"/>
<path d="M0 0 C0 3.63 0 7.26 0 11 C-2.64 11 -5.28 11 -8 11 C-9.4783226 8.04335481 -9.06032783 5.25770263 -9 2 C-2.25 0 -2.25 0 0 0 Z " fill="#006a6a" transform="translate(160,356)"/>
<path d="M0 0 C2.31 0 4.62 0 7 0 C8.42944945 2.35438733 9.08661261 3.48032433 8.625 6.25 C8.41875 6.8275 8.2125 7.405 8 8 C1.9453125 8.1953125 1.9453125 8.1953125 0 8 C-0.66 7.34 -1.32 6.68 -2 6 C-1.34 4.02 -0.68 2.04 0 0 Z " fill="#006a6a" transform="translate(142,358)"/>
<path d="M0 0 C2.64 0.33 5.28 0.66 8 1 C8 3.31 8 5.62 8 8 C5.03 8 2.06 8 -1 8 C-2 6 -2 6 -1.0625 2.875 C-0.5365625 1.451875 -0.5365625 1.451875 0 0 Z " fill="#006a6a" transform="translate(184,354)"/>
<path d="M0 0 C3.3 0 6.6 0 10 0 C10.33 1.65 10.66 3.3 11 5 C8.875 5.8125 8.875 5.8125 6 6 C3.64430565 4.57113621 1.99580114 2.94938716 0 1 C0 0.67 0 0.34 0 0 Z " fill="#006a6a" transform="translate(137,351)"/>
<path d="M0 0 C2.97 0 5.94 0 9 0 C9 1.65 9 3.3 9 5 C6.36 5 3.72 5 1 5 C0.67 3.35 0.34 1.7 0 0 Z " fill="#006a6a" transform="translate(167,316)"/>
<path d="" fill="#006a6a" transform="translate(0,0)"/>
<path d="" fill="#006a6a" transform="translate(0,0)"/>
</svg>
